<svg xmlns="http://www.w3.org/2000/svg" viewBox="0 0 3000 1049" preserveAspectRatio="xMidYMid meet" aria-label="Slow Dust">
  <path fill="#f7b33d" fill-rule="evenodd" d="M1625.05 1046.21C1622.60 1044.79 1614.17 1040.84 1606.32 1037.44C1557.78 1016.40 1540.47 994.59 1535.48 948.22C1534.61 940.12 1533.04 926.75 1532.00 918.50C1530.95 910.25 1529.82 899.90 1529.49 895.50C1529.16 891.10 1528.03 879.17 1526.98 869.00C1525.93 858.83 1524.37 842.40 1523.50 832.50C1522.64 822.60 1521.26 808.89 1520.43 802.02C1508.94 706.93 1508.43 708.29 1557.10 703.34C1600.97 698.87 1602.80 700.26 1606.51 741.00C1607.38 750.62 1608.77 764.35 1609.60 771.50C1610.43 778.65 1611.96 793.50 1613.01 804.50C1624.12 920.73 1624.78 925.87 1630.04 936.67C1647.00 971.48 1718.14 968.53 1735.60 932.30C1738.99 925.27 1739.88 911.73 1738.13 893.73C1732.19 832.44 1730.63 816.47 1727.99 790.00C1726.32 773.23 1723.85 749.15 1722.50 736.50C1717.06 685.57 1716.22 686.47 1773.50 681.39C1810.04 678.14 1810.56 678.95 1816.46 748.50C1817.30 758.40 1818.86 775.05 1819.94 785.50C1821.02 795.95 1822.62 813.27 1823.49 824.00C1824.37 834.73 1826.45 855.65 1828.11 870.50C1832.65 910.98 1832.81 912.67 1833.57 929.23C1835.82 978.41 1806.98 1013.30 1744.20 1037.38C1734.69 1041.03 1724.69 1045.14 1721.99 1046.51C1714.16 1050.47 1631.95 1050.22 1625.05 1046.21zM1283.00 1035.96C1278.33 1035.53 1269.10 1034.24 1262.50 1033.09C1255.90 1031.93 1231.60 1028.30 1208.50 1025.03C1140.44 1015.37 1141.23 1016.00 1147.49 975.57C1148.86 966.73 1151.34 949.38 1153.01 937.00C1154.69 924.62 1157.15 907.52 1158.49 899.00C1159.84 890.48 1162.34 873.15 1164.05 860.50C1165.77 847.85 1168.72 827.83 1170.62 816.00C1172.52 804.17 1175.83 782.35 1177.97 767.50C1180.12 752.65 1183.50 729.25 1185.48 715.50C1191.38 674.67 1193.08 670.68 1205.73 667.96C1211.00 666.83 1212.33 666.99 1258.00 673.99C1272.58 676.22 1296.88 679.84 1312.00 682.02C1356.00 688.36 1369.49 691.95 1390.72 702.96C1450.45 733.94 1476.60 785.77 1472.06 864.20C1465.37 979.87 1392.76 1045.84 1283.00 1035.96zM1979.86 979.95C1938.65 976.28 1922.18 956.35 1928.84 918.19C1933.45 891.72 1939.58 888.12 1971.00 893.45C2024.31 902.48 2087.27 881.25 2087.33 854.21C2087.36 838.28 2076.95 836.59 1987.00 837.98C1923.24 838.97 1884.34 820.37 1867.89 781.02C1837.59 708.56 1919.15 621.46 2033.10 604.59C2113.60 592.67 2148.83 614.73 2135.03 668.41C2130.04 687.85 2122.87 691.95 2102.46 687.06C2047.72 673.93 1961.27 706.94 1979.25 734.10C1985.87 744.09 2003.84 747.39 2060.50 749.00C2131.00 751.00 2164.71 761.46 2186.61 788.13C2252.70 868.64 2119.34 992.37 1979.86 979.95zM1317.37 939.58C1356.03 929.67 1376.50 899.18 1376.50 851.50C1376.50 801.39 1343.85 770.00 1291.71 770.00C1272.83 770.00 1272.63 770.61 1259.05 869.00C1257.34 881.38 1255.06 897.24 1253.97 904.26C1250.94 923.86 1251.59 928.59 1258.13 934.50C1267.35 942.83 1295.35 945.23 1317.37 939.58zM577.54 820.96C545.75 815.95 534.00 799.53 536.41 763.50C537.98 740.15 540.95 738.03 572.89 737.49C609.70 736.88 634.26 730.00 659.16 713.31C692.75 690.81 688.63 663.53 652.32 668.01C647.47 668.61 632.25 671.30 618.50 674.00C549.92 687.41 523.28 688.09 496.82 677.07C395.18 634.75 439.61 501.30 573.03 448.13C653.84 415.93 702.06 429.39 699.72 483.50C698.63 508.84 693.62 513.66 669.56 512.56C614.22 510.01 538.91 552.55 555.26 577.10C561.54 586.52 588.16 587.40 643.50 580.02C680.37 575.11 700.19 574.43 718.74 577.46C852.44 599.30 799.54 766.24 644.00 813.32C622.51 819.83 592.35 823.29 577.54 820.96zM2410.54 799.65C2405.63 796.61 2401.02 790.47 2384.35 764.77C2377.11 753.62 2359.97 727.17 2346.24 706.00C2273.92 594.42 2276.86 598.68 2269.66 595.11C2260.82 590.71 2259.21 591.45 2213.92 620.72C2180.92 642.05 2175.09 642.00 2161.30 620.19C2159.32 617.06 2153.71 608.33 2148.82 600.80C2130.57 572.63 2131.58 569.40 2165.32 547.68C2174.02 542.08 2195.40 528.10 2212.82 516.61C2230.24 505.11 2252.82 490.44 2263.00 484.00C2283.98 470.72 2314.04 451.23 2347.00 429.53C2387.23 403.04 2388.31 403.20 2411.10 439.25C2433.07 474.01 2432.69 478.64 2406.50 495.75C2341.92 537.93 2344.24 532.10 2373.98 577.50C2393.57 607.41 2413.15 637.60 2432.54 667.79C2440.77 680.60 2454.65 701.98 2463.38 715.29C2492.02 758.95 2491.97 759.35 2455.00 783.07C2422.48 803.94 2419.34 805.11 2410.54 799.65zM878.50 693.65C871.00 690.14 867.92 684.19 859.56 657.00C856.43 646.83 852.58 634.45 851.00 629.50C849.42 624.55 843.12 604.75 837.00 585.50C830.88 566.25 822.79 541.05 819.03 529.50C815.27 517.95 808.74 497.48 804.52 484.00C800.30 470.52 795.10 454.32 792.97 448.00C765.42 366.29 765.65 362.52 798.89 351.60C841.19 337.71 846.51 336.84 853.66 342.60C860.42 348.05 859.43 345.22 902.62 482.50C929.67 568.50 932.15 574.94 939.49 578.43C947.74 582.34 946.85 582.57 1034.59 554.40C1078.30 540.36 1079.07 540.92 1095.54 598.15C1104.19 628.19 1101.98 629.62 999.50 660.53C987.40 664.18 966.02 670.93 952.00 675.53C894.45 694.40 885.05 696.71 878.50 693.65zM1253.88 602.00C1129.23 590.23 1051.35 449.22 1108.63 339.00C1177.43 206.62 1345.92 209.15 1413.27 343.57C1472.05 460.88 1377.79 613.70 1253.88 602.00zM1693.66 592.05C1672.75 589.78 1667.46 587.61 1662.82 579.35C1659.79 573.97 1659.66 573.37 1652.01 531.00C1644.84 491.25 1642.86 484.75 1637.51 483.41C1630.05 481.54 1627.80 485.80 1609.92 535.50C1592.70 583.36 1593.41 582.59 1566.50 582.37C1524.08 582.02 1524.44 582.48 1510.49 511.27C1505.78 487.19 1499.06 453.55 1495.58 436.50C1492.09 419.45 1487.56 396.50 1485.50 385.50C1483.44 374.50 1478.47 349.52 1474.45 330.00C1449.80 210.26 1447.70 217.90 1504.00 222.43C1555.02 226.54 1548.69 217.53 1566.55 311.50C1576.87 365.78 1585.47 360.97 1607.85 288.43C1625.14 232.39 1626.22 231.19 1656.89 233.82C1684.75 236.20 1689.40 239.92 1694.02 263.50C1720.38 398.13 1719.13 397.15 1748.98 306.81C1771.89 237.49 1767.11 241.73 1818.00 245.54C1865.53 249.10 1865.68 250.78 1827.48 348.97C1825.46 354.18 1820.50 367.91 1816.48 379.47C1803.32 417.25 1779.31 484.20 1773.98 498.00C1771.11 505.43 1765.03 522.52 1760.48 536.00C1739.77 597.30 1740.05 597.06 1693.66 592.05zM1277.20 513.89C1326.31 503.58 1352.51 431.77 1326.25 379.50C1284.47 296.36 1185.46 324.87 1185.61 420.00C1185.70 474.23 1233.36 523.09 1277.20 513.89z"/>
</svg>
