<svg xmlns="http://www.w3.org/2000/svg" viewBox="0 0 3000 1050" preserveAspectRatio="xMidYMid meet" aria-label="Slow Dust">
  <path fill="#f7b33d" fill-rule="evenodd" d="M1643.00 1048.53C1577.90 1039.69 1538.53 1003.73 1534.04 949.00C1533.39 941.02 1532.25 930.90 1531.51 926.50C1530.03 917.62 1528.53 903.36 1526.95 883.00C1526.37 875.58 1525.49 867.02 1525.00 864.00C1524.51 860.98 1523.60 851.75 1522.97 843.50C1521.90 829.52 1520.02 810.71 1517.92 793.00C1517.43 788.88 1516.36 776.95 1515.54 766.50C1514.73 756.05 1513.61 743.90 1513.07 739.50C1509.06 706.90 1509.43 706.30 1534.50 703.99C1541.10 703.38 1551.00 702.47 1556.50 701.97C1562.00 701.46 1569.88 700.61 1574.00 700.07C1601.68 696.45 1603.82 698.13 1606.44 725.50C1609.28 755.08 1611.04 772.27 1612.05 780.00C1612.58 784.12 1613.45 792.90 1613.98 799.50C1614.51 806.10 1615.42 815.77 1616.01 821.00C1616.59 826.23 1617.49 835.00 1618.01 840.50C1618.52 846.00 1619.87 859.73 1621.00 871.00C1622.13 882.27 1623.48 896.76 1624.00 903.19C1626.81 938.14 1632.56 948.24 1654.71 957.16C1664.84 961.24 1694.65 960.67 1705.45 956.19C1732.06 945.17 1740.34 933.01 1737.99 908.43C1737.41 902.42 1736.30 890.30 1735.52 881.50C1734.74 872.70 1733.38 858.75 1732.50 850.50C1731.62 842.25 1730.27 828.30 1729.51 819.50C1727.15 792.34 1725.91 780.08 1723.92 764.47C1722.86 756.21 1722.00 747.71 1722.00 745.59C1722.00 743.47 1721.57 738.98 1721.05 735.62C1720.52 732.25 1719.32 721.56 1718.38 711.86C1715.99 687.28 1716.99 685.49 1734.00 683.88C1738.67 683.44 1746.78 682.59 1752.00 681.99C1757.22 681.40 1766.45 680.50 1772.50 680.00C1778.55 679.50 1787.60 678.57 1792.62 677.93C1807.26 676.08 1810.84 678.76 1812.06 692.50C1812.74 700.23 1814.97 719.97 1817.01 736.50C1817.56 740.90 1818.00 747.11 1818.00 750.30C1818.00 753.50 1818.88 763.40 1819.95 772.30C1821.90 788.56 1823.66 807.19 1826.58 842.47C1827.45 852.90 1828.34 861.74 1828.57 862.11C1828.79 862.47 1829.45 868.34 1830.02 875.14C1830.59 881.94 1831.55 889.98 1832.14 893.00C1832.74 896.02 1833.59 904.80 1834.04 912.50C1834.49 920.20 1835.15 930.77 1835.51 936.00C1838.93 985.62 1787.79 1032.54 1715.00 1046.57C1697.77 1049.89 1660.52 1050.90 1643.00 1048.53zM1270.50 1035.96C1265.00 1034.93 1253.75 1033.14 1245.50 1031.97C1237.25 1030.81 1226.67 1029.16 1222.00 1028.31C1217.33 1027.45 1209.90 1026.40 1205.50 1025.97C1188.29 1024.29 1149.25 1017.74 1145.97 1015.99C1141.64 1013.66 1140.76 1004.85 1143.48 991.02C1145.29 981.87 1149.06 956.46 1152.01 933.50C1153.22 924.15 1155.29 910.28 1156.62 902.67C1157.94 895.07 1159.47 884.49 1160.00 879.17C1160.53 873.85 1161.62 865.45 1162.44 860.50C1163.25 855.55 1164.63 846.33 1165.51 840.00C1169.02 814.71 1170.98 801.85 1171.41 801.14C1171.67 800.73 1172.58 795.25 1173.46 788.95C1176.52 766.77 1178.39 754.00 1181.92 731.00C1182.47 727.42 1184.08 716.17 1185.50 706.00C1190.24 672.12 1191.62 667.23 1197.08 664.97C1200.36 663.61 1199.89 663.56 1228.50 668.01C1231.80 668.53 1239.22 669.66 1245.00 670.53C1250.78 671.40 1263.83 673.42 1274.00 675.01C1294.07 678.15 1315.28 681.20 1329.50 683.01C1419.45 694.40 1474.03 754.80 1473.99 842.89C1473.97 881.95 1471.53 898.56 1460.89 932.00C1447.70 973.47 1415.89 1007.60 1374.00 1025.24C1346.00 1037.03 1301.11 1041.68 1270.50 1035.96zM1969.50 980.52C1945.85 975.98 1929.76 964.10 1924.83 947.53C1923.78 943.98 1925.29 928.14 1928.03 914.00C1929.05 908.77 1930.16 902.72 1930.52 900.55C1932.81 886.54 1936.13 885.32 1959.00 890.06C2007.43 900.09 2057.81 891.15 2080.47 868.49C2104.24 844.72 2084.71 835.78 2015.89 838.95C1969.16 841.10 1949.32 840.15 1931.89 834.93C1877.86 818.75 1851.70 778.19 1862.47 727.32C1874.68 669.68 1951.36 613.80 2033.00 603.05C2037.67 602.44 2044.78 601.50 2048.79 600.97C2052.80 600.43 2063.96 600.00 2073.59 600.00C2126.94 600.00 2146.77 620.43 2137.42 665.78C2131.98 692.18 2127.08 697.41 2113.22 691.60C2095.20 684.05 2067.11 682.29 2046.50 687.42C2001.24 698.68 1974.00 714.51 1974.00 729.54C1974.00 741.14 2010.78 748.00 2073.01 748.00C2082.31 748.00 2093.42 748.46 2097.71 749.02C2101.99 749.58 2109.32 750.53 2114.00 751.13C2138.89 754.35 2154.03 760.38 2177.96 776.61C2199.21 791.02 2210.06 823.97 2203.29 853.50C2197.39 879.22 2172.81 913.89 2147.63 932.00C2127.71 946.33 2121.64 950.08 2105.50 957.99C2080.80 970.09 2057.48 977.54 2036.00 980.19C2022.82 981.81 1977.39 982.04 1969.50 980.52zM1318.88 938.06C1356.39 927.24 1376.02 897.45 1375.99 851.38C1375.97 814.31 1354.98 783.27 1325.28 776.41C1312.43 773.44 1290.15 770.00 1283.80 770.00C1274.81 770.00 1274.87 769.87 1271.04 796.50C1269.30 808.60 1267.26 822.33 1266.51 827.00C1265.76 831.67 1263.52 847.42 1261.53 862.00C1259.55 876.58 1256.59 896.86 1254.96 907.08C1250.67 934.03 1251.11 936.06 1261.62 937.51C1264.31 937.88 1268.30 938.65 1270.50 939.21C1284.36 942.79 1304.13 942.32 1318.88 938.06zM579.50 822.99C557.78 820.69 544.84 813.52 538.28 800.16C535.01 793.49 533.90 747.28 536.85 740.29C538.29 736.90 543.61 734.25 546.66 735.42C555.30 738.74 602.61 735.50 618.50 730.51C624.55 728.60 631.30 726.59 633.50 726.04C636.99 725.16 643.48 721.72 658.42 712.83C665.43 708.66 678.64 694.97 681.43 688.99C691.91 666.46 673.69 663.12 613.50 676.53C607.45 677.88 599.12 679.43 595.00 679.97C590.88 680.51 583.67 681.63 579.00 682.45C548.83 687.80 534.89 688.24 516.15 684.45C431.46 667.30 413.75 582.40 479.50 508.70C516.64 467.06 587.98 432.64 644.07 429.30C689.04 426.62 709.69 452.94 699.57 500.05C695.76 517.79 694.46 518.63 676.47 514.95C658.11 511.19 639.98 513.31 617.39 521.87C570.82 539.51 541.65 565.73 553.63 579.18C557.33 583.33 560.95 584.00 579.72 584.01C600.52 584.02 616.78 582.44 663.47 575.84C731.53 566.24 784.45 590.25 795.00 635.52C798.64 651.11 797.33 671.19 791.70 686.00C790.35 689.58 787.81 696.29 786.07 700.92C765.90 754.49 685.99 811.36 617.50 820.88C593.04 824.28 592.19 824.33 579.50 822.99zM2410.64 805.93C2409.19 804.79 2406.54 801.44 2404.75 798.49C2402.96 795.54 2398.07 788.03 2393.89 781.81C2389.70 775.59 2381.65 763.30 2375.99 754.50C2360.37 730.21 2330.40 684.00 2320.50 668.94C2317.20 663.92 2311.72 655.46 2308.33 650.15C2304.93 644.84 2298.94 635.77 2295.00 630.00C2291.07 624.23 2285.30 615.31 2282.18 610.19C2269.57 589.51 2266.82 587.76 2257.44 594.39C2254.72 596.31 2249.12 599.89 2245.00 602.35C2240.88 604.80 2233.45 609.58 2228.50 612.98C2201.68 631.36 2183.61 641.96 2179.06 641.98C2174.64 642.01 2168.32 635.42 2162.07 624.28C2159.67 620.00 2152.09 608.10 2145.24 597.83C2131.33 576.99 2129.83 573.01 2133.92 567.82C2135.72 565.54 2160.07 548.83 2175.00 539.63C2191.16 529.67 2200.41 523.60 2242.33 495.45C2248.84 491.08 2257.68 485.48 2261.97 483.00C2266.26 480.52 2276.59 474.00 2284.93 468.50C2315.66 448.23 2344.66 429.27 2350.50 425.64C2353.80 423.58 2358.36 420.46 2360.63 418.70C2362.90 416.94 2366.95 414.24 2369.63 412.71C2372.31 411.18 2376.30 408.82 2378.50 407.48C2387.54 401.95 2390.48 404.32 2407.09 430.47C2413.91 441.23 2422.16 454.18 2425.40 459.26C2435.95 475.78 2434.92 478.86 2414.31 492.37C2383.94 512.27 2365.98 523.90 2360.21 527.39C2351.26 532.80 2350.11 534.85 2352.66 540.83C2354.42 544.95 2365.79 563.21 2372.70 573.00C2377.03 579.13 2385.51 592.10 2393.97 605.50C2398.48 612.65 2404.49 621.96 2407.34 626.18C2410.18 630.40 2414.59 637.15 2417.15 641.18C2419.71 645.21 2426.04 655.02 2431.23 663.00C2443.78 682.32 2452.88 696.71 2456.29 702.64C2457.83 705.31 2461.97 711.55 2465.49 716.50C2471.56 725.04 2481.86 740.69 2486.73 748.79C2492.43 758.26 2488.07 764.49 2466.68 777.42C2453.56 785.35 2441.95 792.74 2438.98 795.05C2425.07 805.91 2415.35 809.64 2410.64 805.93zM875.26 698.97C871.43 697.43 859.43 666.90 855.41 648.50C855.05 646.85 852.58 638.75 849.91 630.50C847.24 622.25 841.41 604.02 836.94 590.00C832.47 575.98 824.39 550.77 818.97 534.00C813.55 517.23 808.02 499.90 806.67 495.50C805.31 491.10 803.08 484.12 801.70 480.00C800.32 475.88 797.81 468.00 796.13 462.50C794.44 457.00 791.66 448.45 789.96 443.50C788.26 438.55 784.88 427.75 782.46 419.50C777.01 400.89 771.71 383.90 769.53 378.06C763.65 362.25 766.54 359.85 806.00 347.88C815.08 345.13 824.98 341.96 828.00 340.85C849.24 333.00 856.13 333.30 859.36 342.23C864.31 355.89 892.76 444.86 896.54 458.50C897.45 461.80 901.05 473.05 904.53 483.50C908.01 493.95 911.56 505.23 912.41 508.57C913.26 511.90 917.13 524.05 921.00 535.57C924.88 547.08 928.94 560.00 930.02 564.29C935.47 585.77 933.29 585.64 987.50 567.84C999.05 564.05 1011.95 560.06 1016.16 558.97C1020.37 557.89 1027.93 555.44 1032.95 553.52C1049.52 547.20 1071.55 541.70 1075.32 542.94C1080.18 544.55 1083.87 553.47 1094.56 589.50C1096.03 594.45 1098.53 602.67 1100.11 607.76C1105.51 625.08 1103.55 629.97 1090.00 633.01C1086.97 633.69 1080.45 635.69 1075.50 637.47C1061.82 642.37 1021.75 655.37 1001.00 661.63C969.82 671.04 951.89 676.67 943.00 679.84C931.05 684.09 879.13 700.17 878.00 699.96C877.73 699.91 876.49 699.47 875.26 698.97zM1238.67 601.45C1225.17 598.78 1207.31 593.12 1198.50 588.72C1111.05 545.07 1069.50 457.60 1094.62 370.00C1101.23 346.93 1110.95 328.65 1130.15 303.14C1148.67 278.54 1185.36 253.61 1217.00 244.12C1298.97 219.53 1394.12 276.04 1424.77 367.50C1432.48 390.51 1433.45 398.01 1432.66 428.50C1431.92 457.15 1426.80 478.54 1415.08 501.83C1394.30 543.16 1362.99 573.83 1322.01 593.00C1298.43 604.02 1267.49 607.16 1238.67 601.45zM1708.00 595.02C1697.94 593.52 1681.57 591.99 1675.65 591.99C1661.94 592.01 1660.01 588.63 1655.05 556.00C1653.92 548.58 1651.89 537.33 1650.55 531.00C1649.20 524.67 1646.48 509.38 1644.50 497.00C1641.03 475.42 1639.28 469.42 1636.69 470.26C1635.19 470.75 1627.46 489.80 1620.56 510.00C1617.65 518.52 1613.02 531.58 1610.27 539.00C1607.52 546.42 1603.87 556.63 1602.15 561.68C1594.04 585.56 1594.49 585.22 1571.79 584.47C1557.40 584.00 1549.98 583.41 1533.06 581.36C1523.37 580.19 1521.03 574.37 1513.00 531.50C1511.25 522.15 1508.53 508.43 1506.96 501.00C1505.38 493.57 1503.34 483.00 1502.42 477.50C1501.50 472.00 1499.94 464.35 1498.95 460.50C1497.96 456.65 1496.63 450.12 1495.99 446.00C1495.35 441.88 1494.01 435.12 1493.02 431.00C1492.02 426.88 1490.02 416.98 1488.57 409.00C1487.12 401.02 1485.06 390.68 1483.99 386.00C1482.92 381.32 1481.57 374.12 1480.98 370.00C1480.40 365.88 1478.16 354.18 1476.00 344.00C1473.83 333.82 1470.49 318.07 1468.56 309.00C1466.63 299.93 1464.56 289.35 1463.97 285.50C1463.39 281.65 1462.24 275.91 1461.42 272.74C1460.61 269.58 1459.48 263.30 1458.91 258.79C1458.35 254.28 1456.79 246.35 1455.44 241.18C1450.25 221.19 1453.83 214.92 1468.70 217.99C1473.29 218.94 1483.29 219.71 1522.00 222.06C1546.93 223.58 1551.97 225.62 1553.58 234.82C1553.93 236.84 1555.55 245.47 1557.18 254.00C1558.81 262.52 1561.91 279.18 1564.06 291.00C1566.22 302.82 1569.32 318.57 1570.94 326.00C1572.57 333.43 1574.62 344.00 1575.50 349.50C1578.28 366.77 1580.84 366.15 1587.01 346.70C1589.32 339.44 1592.90 329.00 1594.97 323.50C1597.04 318.00 1600.83 306.52 1603.41 298.00C1612.17 268.97 1621.99 239.51 1624.00 236.23C1627.64 230.26 1629.29 230.19 1675.50 233.86C1690.79 235.08 1690.73 234.99 1696.00 266.00C1697.16 272.88 1699.19 283.23 1700.51 289.00C1701.83 294.77 1703.18 301.30 1703.52 303.50C1703.85 305.70 1705.42 313.80 1706.99 321.50C1708.57 329.20 1710.83 341.12 1712.02 348.00C1713.20 354.88 1714.59 362.66 1715.09 365.30C1715.59 367.94 1716.00 371.31 1716.01 372.80C1716.02 377.91 1717.97 383.00 1719.92 383.00C1722.75 383.00 1723.28 381.83 1729.90 361.00C1733.31 350.27 1742.18 323.27 1749.61 301.00C1757.05 278.73 1763.80 257.80 1764.63 254.50C1768.38 239.52 1766.66 239.77 1830.00 245.03C1867.78 248.17 1866.37 244.40 1848.66 295.00C1837.46 326.99 1830.63 345.55 1826.74 354.54C1824.82 358.96 1822.75 364.93 1822.14 367.80C1821.52 370.68 1820.28 374.71 1819.39 376.76C1818.49 378.82 1815.84 385.90 1813.49 392.50C1811.15 399.10 1805.77 414.18 1801.55 426.00C1797.32 437.82 1791.66 453.80 1788.97 461.50C1786.28 469.20 1781.53 482.02 1778.43 490.00C1775.33 497.98 1768.82 516.20 1763.97 530.50C1740.99 598.26 1742.68 595.42 1725.23 595.67C1718.78 595.76 1711.03 595.47 1708.00 595.02zM1281.08 512.17C1302.70 506.52 1323.75 482.09 1332.56 452.41C1338.56 432.21 1335.61 397.30 1326.57 381.50C1312.61 357.08 1299.31 343.78 1280.58 335.49C1235.84 315.71 1189.55 355.05 1186.30 415.61C1183.30 471.68 1234.88 524.23 1281.08 512.17z"/>
</svg>
