<?xml version="1.0" encoding="UTF-8"?>
<!-- Generator: visioncortex VTracer 0.6.12 -->
<svg version="1.1" xmlns="http://www.w3.org/2000/svg" width="1500" height="747">
<path d="M0 0 C0.416 0.018 0.416 0.018 2.518 0.112 C2.968 0.135 2.968 0.135 5.242 0.25 C6.165 0.294 7.087 0.337 8.037 0.382 C9.99 0.475 11.943 0.571 13.896 0.67 C16.886 0.82 19.878 0.96 22.869 1.098 C24.765 1.19 26.66 1.282 28.555 1.375 C29.452 1.417 30.349 1.459 31.273 1.502 C31.69 1.524 31.69 1.524 33.801 1.633 C34.167 1.651 34.167 1.651 36.023 1.743 C37.965 1.946 37.965 1.946 40.965 2.946 C42.865 5.796 43.358 7.099 43.955 10.344 C44.122 11.233 44.289 12.123 44.461 13.04 C44.635 14.005 44.809 14.971 44.989 15.965 C45.176 16.974 45.363 17.983 45.557 19.023 C46.158 22.267 46.749 25.513 47.34 28.758 C47.73 30.871 48.121 32.984 48.512 35.096 C49.673 41.378 50.821 47.661 51.965 53.946 C52.063 54.482 52.063 54.482 52.557 57.198 C53.696 63.447 54.831 69.696 55.965 75.946 C58.172 73.738 58.578 72.51 59.481 69.571 C59.759 68.677 60.038 67.784 60.325 66.863 C60.472 66.382 60.472 66.382 61.215 63.946 C61.843 61.927 62.472 59.909 63.102 57.891 C63.416 56.883 63.729 55.876 64.052 54.837 C65.323 50.813 66.671 46.817 68.028 42.821 C70.498 35.52 72.74 28.162 74.874 20.756 C75.54 18.475 76.238 16.208 76.965 13.946 C77.185 13.253 77.405 12.56 77.632 11.846 C78.328 9.926 78.328 9.926 79.965 6.946 C85.549 5.201 91.363 6.26 97.09 6.758 C98.187 6.841 99.284 6.925 100.414 7.01 C101.465 7.099 102.515 7.187 103.598 7.278 C104.556 7.358 105.514 7.437 106.501 7.519 C108.965 7.946 108.965 7.946 111.965 9.946 C112.879 13.106 112.879 13.106 113.59 17.008 C113.654 17.35 113.654 17.35 113.977 19.081 C114.6 22.508 115.112 25.913 115.403 29.383 C115.766 33.404 116.76 37.145 117.797 41.043 C120.172 50.255 121.718 59.559 123.215 68.946 C123.485 70.607 123.756 72.269 124.028 73.93 C124.68 77.934 125.325 81.94 125.965 85.946 C128.619 82.571 129.815 79.778 131.028 75.633 C131.451 74.219 131.877 72.805 132.305 71.391 C132.555 70.563 132.805 69.734 133.062 68.88 C134.79 63.266 136.609 57.68 138.417 52.09 C139.079 50.044 139.739 47.997 140.399 45.95 C143.377 36.722 146.374 27.51 149.653 18.383 C150.09 17.165 150.527 15.947 150.977 14.692 C151.303 13.786 151.629 12.879 151.965 11.946 C160.632 11.821 169.198 12.177 177.84 12.821 C179.023 12.899 180.207 12.978 181.426 13.059 C181.998 13.101 181.998 13.101 184.895 13.313 C185.918 13.386 186.941 13.46 187.996 13.535 C191.171 13.974 193.961 14.845 196.965 15.946 C194.957 24.774 192.258 33.197 189.153 41.696 C188.931 42.309 188.931 42.309 187.811 45.414 C185.432 51.985 183.009 58.538 180.528 65.071 C178.692 69.904 177.082 74.727 175.66 79.696 C174.958 81.967 174.123 84.124 173.215 86.321 C171.253 91.1 169.533 95.942 167.84 100.821 C164.862 109.399 161.834 117.958 158.778 126.508 C158.362 127.673 157.946 128.837 157.517 130.037 C155.34 136.128 153.147 142.213 150.932 148.29 C149.951 150.984 148.975 153.68 148 156.375 C146 161.903 143.985 167.425 141.965 172.946 C141.83 173.318 141.83 173.318 141.145 175.199 C140.468 177.055 139.78 178.907 139.09 180.758 C138.721 181.755 138.353 182.751 137.973 183.778 C136.965 185.946 136.965 185.946 134.965 186.946 C127.298 187.398 119.601 186.736 111.965 186.071 C110.943 185.992 109.921 185.914 108.867 185.833 C107.889 185.749 106.911 185.665 105.903 185.579 C105.025 185.505 104.147 185.432 103.242 185.356 C100.965 184.946 100.965 184.946 97.965 182.946 C97.153 180.226 97.153 180.226 96.535 176.735 C96.3 175.44 96.064 174.144 95.821 172.81 C95.577 171.397 95.333 169.984 95.09 168.571 C94.833 167.132 94.575 165.694 94.316 164.256 C93.785 161.294 93.261 158.331 92.742 155.367 C92.002 151.141 91.237 146.92 90.465 142.7 C90.006 140.178 89.548 137.656 89.09 135.133 C88.875 133.949 88.66 132.764 88.438 131.544 C88.243 130.453 88.049 129.363 87.848 128.239 C87.677 127.285 87.505 126.331 87.329 125.349 C86.965 122.946 86.965 122.946 86.965 119.946 C86.305 119.946 85.645 119.946 84.965 119.946 C84.866 120.59 84.767 121.235 84.664 121.899 C83.728 125.979 82.258 129.786 80.778 133.696 C80.137 135.409 79.498 137.123 78.86 138.836 C78.539 139.696 78.219 140.555 77.889 141.44 C76.541 145.095 75.25 148.768 73.965 152.446 C71.738 158.795 69.465 165.127 67.153 171.446 C66.85 172.278 66.548 173.11 66.237 173.967 C64.082 179.829 64.082 179.829 62.965 180.946 C59.891 181.202 56.799 181.136 53.715 181.133 C53.264 181.134 53.264 181.134 50.984 181.135 C43.809 181.079 37.006 180.385 29.965 178.946 C27.973 173.288 26.331 167.701 25.153 161.821 C24.989 161.028 24.826 160.235 24.658 159.418 C22.804 150.325 21.074 141.207 19.328 132.093 C18.029 125.325 16.695 118.566 15.281 111.821 C15.144 111.165 15.007 110.509 14.866 109.833 C14.211 106.712 13.55 103.592 12.882 100.474 C11.841 95.55 10.87 90.698 10.36 85.688 C9.965 81.946 9.965 81.946 8.965 80.946 C8.534 79.096 8.157 77.234 7.801 75.368 C7.569 74.162 7.338 72.955 7.099 71.713 C6.846 70.374 6.593 69.035 6.34 67.696 C6.077 66.317 5.814 64.938 5.55 63.56 C4.984 60.598 4.422 57.635 3.861 54.672 C3.096 50.635 2.327 46.599 1.557 42.563 C0.928 39.266 0.301 35.969 -0.326 32.672 C-0.629 31.08 -0.931 29.489 -1.234 27.898 C-2.941 18.93 -4.59 9.961 -6.035 0.946 C-3.712 -0.216 -2.572 -0.122 0 0 Z " fill="#F7B239" transform="translate(733.034912109375,110.05419921875)"/>
<path d="M0 0 C8.363 0.759 16.677 1.829 25 2.938 C26.302 3.107 27.604 3.277 28.945 3.451 C35.216 4.284 41.394 5.24 47.582 6.547 C51.216 7.228 54.873 7.595 58.549 7.987 C79.658 10.267 98.78 15.568 115 30 C115.611 30.541 116.222 31.083 116.852 31.641 C131.157 45.127 137.645 63.445 138.281 82.766 C138.721 106.2 136.298 127.099 125 148 C124.34 148 123.68 148 123 148 C122.916 148.715 122.832 149.431 122.746 150.168 C121.835 153.626 120.321 155.556 118.062 158.312 C117.352 159.196 116.642 160.079 115.91 160.988 C115.28 161.652 114.649 162.316 114 163 C113.34 163 112.68 163 112 163 C112 163.66 112 164.32 112 165 C111.34 165 110.68 165 110 165 C110 165.66 110 166.32 110 167 C108.369 168.057 106.693 169.045 105 170 C102.203 171.853 99.408 173.707 96.621 175.574 C94 177 94 177 90 177 C90 177.66 90 178.32 90 179 C70.352 186.368 48.551 187.393 28.113 182.852 C23.141 181.758 18.112 181.182 13.062 180.562 C4.412 179.481 -4.203 178.245 -12.812 176.875 C-13.355 176.79 -13.355 176.79 -16.103 176.358 C-17.107 176.196 -18.111 176.034 -19.145 175.867 C-20.035 175.724 -20.926 175.581 -21.843 175.433 C-24 175 -24 175 -26 174 C-26.319 167.307 -25.598 161.311 -24.342 154.739 C-23.098 148.004 -22.241 141.243 -21.428 134.443 C-19.83 121.096 -18.005 107.793 -16 94.5 C-15.87 93.64 -15.741 92.781 -15.607 91.895 C-13.977 81.119 -12.252 70.364 -10.401 59.623 C-9.048 51.628 -7.983 43.603 -6.938 35.562 C-3.058 5.789 -3.058 5.789 0 0 Z M38 51 C37.476 53.029 37.476 53.029 37.086 55.737 C37.011 56.244 37.011 56.244 36.631 58.808 C36.553 59.363 36.553 59.363 36.16 62.172 C35.993 63.319 35.825 64.467 35.652 65.649 C35.114 69.348 34.588 73.049 34.062 76.75 C33.712 79.169 33.362 81.589 33.01 84.008 C32.156 89.897 31.312 95.787 30.473 101.678 C30.021 104.854 29.567 108.03 29.113 111.205 C27.697 121.102 27.697 121.102 27.302 123.921 C27.013 125.913 26.685 127.9 26.356 129.886 C26 133 26 133 27 136 C37.63 140.911 53.199 140.948 64.219 137.254 C67.563 136 70.807 134.597 74 133 C74 132.34 74 131.68 74 131 C74.66 130.67 74.66 130.67 78 129 C78 128.34 78 127.68 78 127 C78.597 126.76 79.194 126.52 79.809 126.273 C85.378 123.037 88.098 115.555 89.875 109.625 C91.093 104.034 91.309 98.513 91.375 92.812 C91.389 91.981 91.403 91.15 91.417 90.293 C91.355 82.223 89.194 75.403 85 68.5 C84.505 67.665 84.01 66.829 83.5 65.969 C82 64 82 64 79 63 C78.835 62.505 78.835 62.505 78 60 C69.604 53.628 48.184 45.908 38 51 Z " fill="#F7B239" transform="translate(598,333)"/>
<path d="M0 0 C5.523 5.356 6.291 10.725 6.438 18.25 C6.112 33.388 6.112 33.388 3.125 36.375 C1.203 36.414 -0.719 36.386 -2.641 36.332 C-3.842 36.311 -5.043 36.289 -6.281 36.268 C-8.797 36.215 -11.313 36.151 -13.828 36.072 C-25.877 35.9 -35.942 38.901 -46.5 44.562 C-53.648 48.299 -53.648 48.299 -56.875 49.375 C-56.875 50.035 -56.875 50.695 -56.875 51.375 C-57.459 51.454 -58.043 51.532 -58.645 51.613 C-63.061 53.122 -65.455 57.571 -67.875 61.375 C-69 64.688 -69 64.688 -68.875 67.375 C-67.433 69.854 -66.609 71.147 -63.827 72.011 C-57.004 72.475 -50.374 72.208 -43.562 71.625 C-42.424 71.534 -41.285 71.444 -40.112 71.35 C-33.081 70.756 -26.152 69.87 -19.188 68.75 C1.492 65.514 22.15 65.408 40.125 77.375 C48.044 84.659 53.16 93.021 54.406 103.809 C54.936 117.607 49.14 133.906 40.125 144.375 C39.465 144.375 38.805 144.375 38.125 144.375 C37.857 145.118 37.589 145.86 37.312 146.625 C36.172 149.266 35.031 151.231 33.125 153.375 C32.465 153.375 31.805 153.375 31.125 153.375 C31.125 154.035 31.125 154.695 31.125 155.375 C25.649 160.375 25.649 160.375 23.125 160.375 C22.795 161.365 22.465 162.355 22.125 163.375 C20.348 164.98 20.348 164.98 18.188 166.562 C17.477 167.092 16.767 167.622 16.035 168.168 C14.125 169.375 14.125 169.375 12.125 169.375 C12.125 170.035 12.125 170.695 12.125 171.375 C10.805 171.375 9.485 171.375 8.125 171.375 C8.125 172.035 8.125 172.695 8.125 173.375 C6.403 174.388 4.672 175.385 2.938 176.375 C1.975 176.932 1.012 177.489 0.02 178.062 C-2.924 179.397 -4.694 179.654 -7.875 179.375 C-7.875 180.035 -7.875 180.695 -7.875 181.375 C-9.6 182.052 -11.33 182.716 -13.062 183.375 C-14.025 183.746 -14.988 184.118 -15.98 184.5 C-18.797 185.351 -20.957 185.546 -23.875 185.375 C-23.875 186.035 -23.875 186.695 -23.875 187.375 C-56.464 193.423 -56.464 193.423 -70 185.062 C-73.706 181.727 -75.161 178.218 -75.875 173.375 C-76.015 170.436 -76.015 167.504 -76 164.562 C-76.002 164.178 -76.002 164.178 -76.012 162.232 C-76.003 157.196 -75.591 152.361 -74.875 147.375 C-74.287 147.416 -73.699 147.457 -73.094 147.499 C-58.531 148.461 -44.599 149.207 -30.684 143.973 C-28.369 143.208 -26.291 143.141 -23.875 143.375 C-23.875 142.715 -23.875 142.055 -23.875 141.375 C-23.104 140.965 -22.333 140.555 -21.539 140.133 C-20.536 139.594 -19.533 139.055 -18.5 138.5 C-17.502 137.966 -16.505 137.433 -15.477 136.883 C-12.875 135.375 -12.875 135.375 -10.875 133.375 C-9.885 133.375 -8.895 133.375 -7.875 133.375 C-7.751 133.107 -7.751 133.107 -7.125 131.75 C-5.875 129.375 -5.875 129.375 -3.75 126.625 C-1.306 122.389 -1.393 120.197 -1.875 115.375 C-4.587 112.663 -6.014 113.076 -9.812 113.062 C-20.016 113.2 -30.513 114.533 -40.328 117.375 C-59.688 122.833 -84.185 125.168 -102.25 115.062 C-113.094 108.233 -119.7 101.023 -122.875 88.375 C-123.289 85.091 -123.354 81.87 -123.312 78.562 C-123.303 77.684 -123.294 76.806 -123.285 75.902 C-122.841 59.18 -114.246 45.216 -102.879 33.484 C-100.875 31.375 -100.875 31.375 -99.875 29.375 C-99.215 29.375 -98.555 29.375 -97.875 29.375 C-97.875 28.715 -97.875 28.055 -97.875 27.375 C-95.941 25.938 -95.941 25.938 -93.438 24.375 C-88.98 21.585 -88.98 21.585 -87.875 19.375 C-86.885 19.375 -85.895 19.375 -84.875 19.375 C-84.875 18.715 -84.875 18.055 -84.875 17.375 C-23.134 -17.662 -23.134 -17.662 0 0 Z " fill="#F7B239" transform="translate(343.875,220.625)"/>
<path d="M0 0 C0.621 0.005 0.621 0.005 3.763 0.03 C25.356 0.448 44.855 10.431 60.262 25.461 C62.013 27.389 63.612 29.364 65.188 31.438 C65.515 31.859 65.515 31.859 67.172 33.992 C82.318 54.092 90.097 77.435 86.691 102.605 C84.342 117.269 78.921 129.911 71.188 142.438 C70.929 142.872 70.929 142.872 69.621 145.07 C66.207 150.558 62.176 154.382 57.188 158.438 C55.746 159.704 54.308 160.974 52.875 162.25 C47.023 167.438 47.023 167.438 43.188 167.438 C43.188 168.097 43.188 168.757 43.188 169.438 C23.801 180.037 4.436 183.959 -17.102 177.648 C-24.182 175.338 -30.888 173.017 -36.812 168.438 C-38.473 167.756 -40.14 167.09 -41.812 166.438 C-45.428 164.497 -47.966 162.367 -50.812 159.438 C-52.668 157.875 -54.538 156.333 -56.422 154.805 C-56.881 154.354 -57.34 153.902 -57.812 153.438 C-57.812 152.778 -57.812 152.118 -57.812 151.438 C-58.472 151.438 -59.133 151.438 -59.812 151.438 C-69.812 140.377 -69.812 140.377 -69.812 135.438 C-70.472 135.438 -71.133 135.438 -71.812 135.438 C-84.035 110.151 -88.792 87.02 -79.588 59.565 C-76.096 49.982 -70.831 41.613 -64.812 33.438 C-64.111 32.324 -63.41 31.21 -62.688 30.062 C-60.674 27.244 -58.665 25.39 -55.812 23.438 C-55.153 23.438 -54.492 23.438 -53.812 23.438 C-53.601 22.866 -53.39 22.295 -53.172 21.707 C-46.937 11.297 -27.892 3.883 -16.882 1.026 C-11.272 -0.05 -5.696 -0.05 0 0 Z M-23.812 53.438 C-23.812 54.097 -23.812 54.757 -23.812 55.438 C-24.803 55.767 -25.793 56.097 -26.812 56.438 C-26.812 57.428 -26.812 58.418 -26.812 59.438 C-27.472 59.438 -28.133 59.438 -28.812 59.438 C-35.606 73.26 -39.903 87.248 -35.688 102.688 C-33.63 108.513 -30.704 113.99 -27.812 119.438 C-27.153 119.438 -26.492 119.438 -25.812 119.438 C-25.812 120.097 -25.812 120.757 -25.812 121.438 C-25.153 121.438 -24.492 121.438 -23.812 121.438 C-23.751 122.056 -23.689 122.675 -23.625 123.312 C-22.812 125.438 -22.812 125.438 -20.25 126.688 C-19.848 126.811 -19.848 126.811 -17.812 127.438 C-17.812 128.097 -17.812 128.757 -17.812 129.438 C-17.153 129.438 -16.493 129.438 -15.812 129.438 C-15.812 130.097 -15.812 130.757 -15.812 131.438 C-6.18 136.494 2.993 139.934 13.918 136.605 C17.261 135.15 20.151 133.462 23.188 131.438 C23.188 130.778 23.188 130.118 23.188 129.438 C23.787 129.178 24.386 128.919 25.004 128.652 C32.973 124.219 36.893 112.859 39.309 104.609 C42.044 93.069 41.268 78.857 35.535 68.434 C33.821 65.713 32.023 63.077 30.188 60.438 C29.669 59.54 29.151 58.643 28.617 57.719 C26.854 54.905 25.079 54.021 22.188 52.438 C21.404 51.798 20.62 51.159 19.812 50.5 C14.987 46.708 10.442 43.91 4.188 43.438 C3.323 43.351 2.458 43.265 1.566 43.176 C-8.258 42.601 -17.267 45.842 -23.812 53.438 Z " fill="#F7B239" transform="translate(628.8125,120.5625)"/>
<path d="M0 0 C0.391 -0.006 0.391 -0.006 2.367 -0.037 C11.787 -0.061 19.479 1.924 27.375 7.188 C27.375 7.848 27.375 8.507 27.375 9.188 C28.035 9.188 28.695 9.188 29.375 9.188 C34.616 20.762 32.408 31.545 28.375 43.188 C28.045 43.517 28.045 43.517 26.375 45.188 C21.752 44.832 17.74 43.673 13.375 42.188 C1.537 39.83 -10.103 40.888 -21.625 44.188 C-21.955 44.517 -22.285 44.847 -22.625 45.188 C-24.625 45.228 -26.625 45.23 -28.625 45.188 C-28.625 45.847 -28.625 46.507 -28.625 47.188 C-29.159 47.323 -29.692 47.458 -30.242 47.598 C-37.04 49.562 -45.017 52.96 -48.871 59.207 C-49.867 61.823 -50.248 64.422 -50.625 67.188 C-35.959 72.196 -22.078 73.265 -6.688 73.688 C12.611 74.243 31.406 74.937 48.375 85.188 C48.375 85.847 48.375 86.507 48.375 87.188 C48.67 87.24 48.67 87.24 50.16 87.504 C55.065 89.018 58.344 93.468 60.902 97.734 C65.671 107.079 67.482 117.363 64.312 127.688 C63.709 129.205 63.055 130.703 62.375 132.188 C61.841 133.384 61.308 134.58 60.758 135.812 C60.155 137.106 59.548 138.398 58.938 139.688 C58.649 140.312 58.361 140.937 58.064 141.58 C55.888 145.979 55.888 145.979 53.152 147.094 C52.859 147.109 52.859 147.109 51.375 147.188 C51.045 148.837 50.715 150.488 50.375 152.188 C49.715 152.188 49.055 152.188 48.375 152.188 C48.115 152.77 47.854 153.353 47.586 153.953 C46.296 156.334 44.891 158.005 43 159.938 C42.415 160.551 41.83 161.165 41.227 161.797 C39.375 163.188 39.375 163.188 35.375 163.188 C35.375 164.178 35.375 165.168 35.375 166.188 C32.926 168.195 32.926 168.195 29.688 170.312 C28.632 171.016 27.576 171.72 26.488 172.445 C23.641 174.039 21.581 174.795 18.375 175.188 C18.375 175.847 18.375 176.507 18.375 177.188 C17.662 177.441 16.949 177.695 16.215 177.957 C15.257 178.301 14.299 178.645 13.312 179 C12.373 179.336 11.433 179.673 10.465 180.02 C8.294 180.84 6.151 181.738 4.035 182.691 C0.018 184.334 -3.902 185.368 -8.125 186.312 C-8.846 186.481 -9.566 186.65 -10.309 186.824 C-18.85 188.786 -27.061 189.396 -35.812 189.438 C-36.343 189.448 -36.343 189.448 -39.025 189.5 C-50.405 189.555 -61.039 187.705 -69.938 180.25 C-74.557 174.603 -73.639 168.932 -73.039 162.066 C-71.518 147.814 -71.518 147.814 -67.625 143.188 C-66.944 143.309 -66.264 143.43 -65.562 143.555 C-44.158 147.255 -23.502 150.079 -3.625 139.188 C-2.863 138.784 -2.101 138.381 -1.316 137.965 C3.18 135.399 6.003 132.931 8.375 128.188 C9.125 124.312 9.125 124.312 9.375 121.188 C0.954 118.678 -6.644 117.792 -15.406 117.965 C-16.582 117.974 -17.757 117.983 -18.968 117.992 C-22.687 118.022 -26.406 118.072 -30.125 118.125 C-33.844 118.173 -37.563 118.216 -41.282 118.247 C-43.584 118.267 -45.886 118.296 -48.188 118.337 C-58.156 118.429 -67.671 117.222 -77.062 113.812 C-77.629 113.613 -77.629 113.613 -80.496 112.602 C-83.715 111.147 -85.972 109.499 -88.625 107.188 C-89.294 106.658 -89.963 106.128 -90.652 105.582 C-98.06 99.447 -103.909 91.838 -105.625 82.188 C-106.849 67.043 -104.104 53.42 -94.41 41.453 C-92.203 38.971 -89.943 36.566 -87.625 34.188 C-86.8 33.301 -85.975 32.414 -85.125 31.5 C-75.057 22.188 -75.057 22.188 -71.625 22.188 C-71.46 21.692 -71.46 21.692 -70.625 19.188 C-68.985 18.458 -67.312 17.801 -65.625 17.188 C-64.884 16.74 -64.143 16.293 -63.379 15.832 C-53.66 10.029 -43.243 6.56 -32.312 3.812 C-31.323 3.562 -30.334 3.312 -29.315 3.053 C-19.591 0.723 -9.976 0.008 0 0 Z " fill="#F7B239" transform="translate(1036.625,300.8125)"/>
<path d="M0 0 C2.534 2.534 2.413 3.802 2.781 7.328 C2.9 8.427 3.019 9.526 3.141 10.658 C3.259 11.843 3.378 13.029 3.5 14.25 C3.628 15.466 3.756 16.682 3.888 17.936 C4.764 26.349 5.561 34.77 6.299 43.197 C6.816 49.098 7.416 54.986 8.062 60.875 C8.682 66.521 9.149 72.137 9.438 77.812 C9.794 84.272 10.579 90.598 11.5 97 C12.791 106.011 13.674 114.9 14 124 C14.041 125.038 14.082 126.075 14.125 127.145 C14.381 138.833 10.724 148.993 3 158 C2.34 158 1.68 158 1 158 C1 158.66 1 159.32 1 160 C0.34 160 -0.32 160 -1 160 C-1 160.66 -1 161.32 -1 162 C-3.069 163.706 -5.125 165.272 -7.312 166.812 C-7.953 167.264 -8.594 167.715 -9.254 168.18 C-31.827 183.734 -61.298 187.182 -87.895 182.711 C-93.066 181.527 -98.04 179.871 -103 178 C-103 177.34 -103 176.68 -103 176 C-103.42 175.968 -103.42 175.968 -105.543 175.805 C-109.937 174.782 -112.733 172.782 -116.312 170.125 C-116.945 169.678 -117.577 169.23 -118.229 168.77 C-122.867 165.399 -122.867 165.399 -124 162 C-124.66 162 -125.32 162 -126 162 C-133.481 151.572 -135.1 142.759 -135.656 130.234 C-135.863 126.976 -136.339 123.817 -136.879 120.598 C-138.614 109.695 -139.432 98.676 -140.438 87.688 C-140.658 85.307 -140.879 82.926 -141.101 80.545 C-141.537 75.849 -141.971 71.152 -142.404 66.455 C-142.915 60.912 -143.433 55.37 -143.957 49.828 C-144.027 49.089 -144.097 48.349 -144.169 47.587 C-144.479 44.306 -144.789 41.024 -145.099 37.743 C-145.306 35.538 -145.511 33.334 -145.713 31.128 C-145.913 28.945 -146.121 26.761 -146.334 24.579 C-146.435 23.492 -146.536 22.405 -146.641 21.285 C-146.734 20.316 -146.827 19.347 -146.923 18.348 C-147 16 -147 16 -146 14 C-143.662 13.513 -143.662 13.513 -140.559 13.184 C-139.424 13.06 -138.289 12.936 -137.12 12.808 C-136.513 12.747 -136.513 12.747 -133.438 12.438 C-132.215 12.308 -130.993 12.179 -129.733 12.046 C-120.832 11.126 -111.94 10.397 -103 10 C-101.438 12.814 -100.696 15.075 -100.393 18.273 C-100.309 19.119 -100.225 19.965 -100.139 20.837 C-100.097 21.298 -100.097 21.298 -99.887 23.627 C-99.792 24.603 -99.697 25.579 -99.6 26.585 C-99.289 29.816 -98.988 33.049 -98.688 36.281 C-98.472 38.534 -98.255 40.786 -98.038 43.038 C-97.466 48.978 -96.904 54.918 -96.344 60.859 C-95.449 70.338 -94.544 79.817 -93.634 89.295 C-93.319 92.593 -93.009 95.892 -92.7 99.192 C-89.923 128.515 -89.923 128.515 -85 134 C-83.36 135.043 -81.699 136.056 -80 137 C-80 137.66 -80 138.32 -80 139 C-74.494 139.916 -69.14 140.215 -63.562 140.25 C-62.755 140.271 -61.947 140.291 -61.115 140.312 C-53.303 140.363 -47.659 138.113 -41 134 C-40.34 134 -39.68 134 -39 134 C-38.691 133.381 -38.381 132.762 -38.062 132.125 C-37.375 130.75 -36.688 129.375 -36 128 C-35.34 128 -34.68 128 -34 128 C-32.905 119.749 -33.209 112.076 -34.109 103.82 C-34.237 102.573 -34.364 101.325 -34.496 100.04 C-34.836 96.733 -35.184 93.427 -35.538 90.121 C-35.884 86.862 -36.219 83.601 -36.555 80.34 C-37.224 73.861 -37.905 67.384 -38.588 60.907 C-39.275 54.39 -39.953 47.873 -40.629 41.355 C-40.749 40.2 -40.87 39.045 -40.994 37.854 C-42.095 27.245 -43.07 16.625 -44 6 C-39.992 3.202 -36.853 2.487 -32.012 2.051 C-31.35 1.988 -30.688 1.926 -30.006 1.862 C-28.61 1.733 -27.214 1.61 -25.818 1.492 C-23.703 1.314 -21.591 1.119 -19.479 0.92 C-5.516 -0.363 -5.516 -0.363 0 0 Z " fill="#F7B239" transform="translate(903,340)"/>
<path d="M0 0 C3.681 1.21 5.2 3.311 7.25 6.5 C7.51 6.897 7.51 6.897 8.828 8.906 C10 11 10 11 10 13 C10.66 13 11.32 13 12 13 C15 18.75 15 18.75 15 21 C15.66 21 16.32 21 17 21 C20.12 25.09 22.658 29.32 23.688 34.375 C22.553 38.706 19.516 40.097 15.836 42.289 C13.564 43.659 11.32 45.057 9.082 46.48 C8.385 46.922 7.689 47.363 6.971 47.818 C5.518 48.74 4.068 49.664 2.619 50.592 C2.273 50.811 2.273 50.811 0.52 51.918 C-0.108 52.318 -0.736 52.718 -1.384 53.13 C-3 54 -3 54 -5 54 C-5 54.66 -5 55.32 -5 56 C-6.935 57.238 -8.925 58.392 -10.938 59.5 C-16.894 62.788 -16.894 62.788 -18 65 C-17.104 66.848 -17.104 66.848 -15.691 69.062 C-15.192 69.859 -14.692 70.656 -14.178 71.477 C-13.645 72.309 -13.112 73.142 -12.562 74 C-11.518 75.643 -10.478 77.289 -9.441 78.938 C-8.974 79.668 -8.507 80.399 -8.026 81.152 C-7 83 -7 83 -7 85 C-6.34 85 -5.68 85 -5 85 C-3.492 87.117 -3.492 87.117 -1.875 89.875 C-1.336 90.78 -0.797 91.685 -0.242 92.617 C1 95 1 95 1 97 C1.66 97 2.32 97 3 97 C4.346 98.95 5.602 100.963 6.812 103 C7.538 104.207 8.263 105.414 8.988 106.621 C9.652 107.736 10.316 108.851 11 110 C11.828 111.358 12.66 112.712 13.5 114.062 C13.688 114.364 13.688 114.364 14.637 115.891 C15.759 117.627 16.916 119.34 18.082 121.047 C18.818 122.125 19.554 123.202 20.312 124.312 C20.661 124.816 20.661 124.816 22.426 127.363 C24 130 24 130 24 133 C24.66 133 25.32 133 26 133 C27.586 135.16 27.586 135.16 29.375 138.062 C29.684 138.563 29.684 138.563 31.246 141.094 C31.825 142.053 32.404 143.012 33 144 C33.445 144.732 33.889 145.464 34.348 146.219 C37 150.706 37 150.706 37 153 C37.66 153 38.32 153 39 153 C40.508 154.863 40.508 154.863 42.125 157.312 C42.664 158.113 43.203 158.914 43.758 159.738 C45 162 45 162 45 165 C45.66 165 46.32 165 47 165 C49.743 168.261 52 171.494 52 175.812 C49.25 181.828 42.541 184.271 37.062 187.438 C25.368 194.264 25.368 194.264 24 197 C20.772 198.524 17.569 199.718 14 200 C11.627 198.448 10.905 196.803 9.668 194.246 C7.984 190.97 6.08 188.119 3.938 185.125 C0.403 180.125 -2.911 175.024 -6.125 169.812 C-9.431 164.454 -12.836 159.219 -16.527 154.113 C-18.138 151.803 -19.559 149.42 -21 147 C-22.472 144.682 -23.95 142.37 -25.438 140.062 C-25.82 139.468 -26.202 138.873 -26.596 138.26 C-29.028 134.482 -31.504 130.736 -34 127 C-34.925 125.589 -35.843 124.173 -36.75 122.75 C-37.178 122.085 -37.606 121.42 -38.047 120.734 C-39 119 -39 119 -39 117 C-39.66 117 -40.32 117 -41 117 C-42.06 115.371 -43.045 113.693 -44 112 C-45.855 109.109 -47.72 106.225 -49.596 103.348 C-52.211 99.307 -54.644 95.198 -57 91 C-64.768 93.545 -64.768 93.545 -68.125 96.5 C-71.274 99.238 -74.662 102 -79 102 C-79 102.66 -79 103.32 -79 104 C-80.765 105.159 -82.591 106.226 -84.438 107.25 C-89.161 109.907 -93.606 112.717 -97.965 115.934 C-100.654 117.343 -102.011 117.654 -105 117 C-106.721 114.912 -107.983 113.069 -109.312 110.75 C-110.087 109.468 -110.863 108.187 -111.641 106.906 C-112.029 106.255 -112.418 105.604 -112.818 104.934 C-115.245 100.963 -117.935 97.165 -120.566 93.328 C-122 91 -122 91 -122 89 C-122.66 89 -123.32 89 -124 89 C-124.33 86.36 -124.66 83.72 -125 81 C-123.94 80.301 -122.881 79.603 -121.789 78.883 C-120.401 77.964 -119.013 77.044 -117.625 76.125 C-116.926 75.665 -116.228 75.205 -115.508 74.73 C-114.838 74.286 -114.167 73.841 -113.477 73.383 C-112.859 72.974 -112.241 72.566 -111.604 72.145 C-110 71 -110 71 -108 69 C-106.68 69 -105.36 69 -104 69 C-104 68.34 -104 67.68 -104 67 C-102.199 65.773 -102.199 65.773 -99.688 64.375 C-95.748 62.099 -92.082 59.661 -88.438 56.938 C-84.502 54.019 -80.564 51.565 -76.242 49.273 C-72.843 47.343 -69.73 45.04 -66.555 42.766 C-63.199 40.446 -59.703 38.409 -56.188 36.344 C-53.611 34.761 -51.326 32.927 -49 31 C-46.025 29.041 -43.514 27.651 -40 27 C-40 26.34 -40 25.68 -40 25 C-39.397 24.674 -38.793 24.348 -38.172 24.012 C-37.373 23.575 -36.573 23.138 -35.75 22.688 C-34.961 22.258 -34.172 21.829 -33.359 21.387 C-31 20 -31 20 -28.891 18.332 C-27 17 -27 17 -24 17 C-24 16.34 -24 15.68 -24 15 C-21.953 13.563 -21.953 13.563 -19.25 12 C-18.368 11.484 -17.487 10.969 -16.578 10.438 C-14.41 9.228 -12.232 8.085 -10 7 C-10 6.34 -10 5.68 -10 5 C-9.278 4.732 -8.556 4.464 -7.812 4.188 C-5 3 -5 3 -2.438 1.25 C-1.633 0.838 -0.829 0.425 0 0 Z " fill="#F7B239" transform="translate(1192,203)"/>
<path d="M0 0 C1.116 2.72 1.116 2.72 2.164 6.211 C2.261 6.527 2.261 6.527 2.75 8.124 C3.384 10.205 4.004 12.29 4.625 14.375 C5.291 16.57 5.961 18.763 6.631 20.956 C7.088 22.451 7.543 23.946 7.996 25.441 C10.123 32.447 12.363 39.412 14.625 46.375 C17.86 56.373 20.977 66.402 24.038 76.454 C26.671 85.05 29.48 93.58 32.387 102.087 C34.176 107.357 35.731 112.581 37 118 C37.331 119.334 37.664 120.667 38 122 C42.56 121.335 46.906 120.26 51.312 118.938 C52.033 118.723 52.754 118.509 53.497 118.289 C66.278 114.455 78.968 110.304 91.648 106.152 C93.349 105.601 95.049 105.051 96.75 104.5 C97.134 104.372 97.134 104.372 99.076 103.727 C102.817 102.521 106.057 101.69 110 102 C113.23 110.246 116.283 118.51 118.812 127 C119.019 127.681 119.225 128.361 119.438 129.062 C120.785 133.697 121.502 138.199 122 143 C115.335 146.589 108.304 148.605 101.098 150.816 C93.894 153.03 86.697 155.264 79.5 157.5 C77.052 158.261 74.604 159.021 72.156 159.781 C70.966 160.151 69.776 160.521 68.55 160.902 C66.197 161.63 63.843 162.352 61.487 163.069 C55.533 164.88 49.651 166.784 43.812 168.938 C32.11 173.156 20.157 176.391 8 179 C4.421 171.697 2.129 164.172 -0.125 156.375 C-0.916 153.682 -1.713 150.991 -2.512 148.301 C-2.614 147.957 -2.614 147.957 -3.13 146.218 C-5.291 138.965 -7.599 131.761 -9.938 124.562 C-10.143 123.928 -10.349 123.294 -10.561 122.641 C-11.609 119.412 -12.66 116.184 -13.712 112.957 C-15.707 106.834 -17.685 100.705 -19.663 94.576 C-20.094 93.239 -20.526 91.902 -20.958 90.565 C-23.256 83.45 -25.541 76.331 -27.75 69.188 C-29.383 63.91 -31.108 58.671 -32.875 53.438 C-35.275 46.304 -37.545 39.134 -39.75 31.938 C-40.044 30.986 -40.337 30.035 -40.64 29.054 C-42.355 23.413 -44.008 17.817 -45 12 C-42.529 9.529 -40.592 9.083 -37.258 8.055 C-36.109 7.7 -34.961 7.346 -33.777 6.98 C-32.572 6.616 -31.367 6.251 -30.125 5.875 C-28.927 5.502 -27.73 5.13 -26.496 4.746 C-17.513 2 -17.513 2 -13 2 C-13 1.34 -13 0.68 -13 0 C-11.4 -0.39 -9.794 -0.762 -8.188 -1.125 C-7.741 -1.229 -7.741 -1.229 -5.48 -1.758 C-3 -2 -3 -2 0 0 Z " fill="#F7B239" transform="translate(429,170)"/>
<path d="M0 0 C4.989 4.035 7.242 8.43 8.652 14.676 C9.192 20.564 7.005 25.45 3.527 30.113 C-1.204 34.737 -6.659 36.57 -13.223 36.801 C-16.048 36.098 -18.594 35.04 -21.223 33.801 C-22.11 33.409 -22.996 33.017 -23.91 32.613 C-28.032 29.383 -30.719 25.542 -31.676 20.336 C-31.965 13.642 -30.322 8.311 -25.867 3.266 C-19.149 -2.912 -8.128 -4.385 0 0 Z M-22.223 10.801 C-23.83 14.016 -23.696 17.314 -23.223 20.801 C-21.599 23.933 -20.22 26.044 -17.41 28.176 C-12.622 29.544 -9.293 29.386 -4.91 26.988 C-2.071 24.677 -0.374 23.151 0.043 19.426 C0.038 18.56 0.033 17.693 0.027 16.801 C0.033 15.935 0.038 15.068 0.043 14.176 C-0.223 11.801 -0.223 11.801 -2.223 8.801 C-2.883 8.801 -3.543 8.801 -4.223 8.801 C-4.223 8.141 -4.223 7.481 -4.223 6.801 C-11.704 4.307 -16.789 5.096 -22.223 10.801 Z " fill="#E8B55F" transform="translate(892.22265625,593.19921875)"/>
<path d="M0 0 C2.542 -0.027 5.083 -0.047 7.625 -0.062 C8.338 -0.071 9.051 -0.079 9.785 -0.088 C13.973 -0.107 17.873 0.173 22 1 C22 1.66 22 2.32 22 3 C22.557 3.041 23.114 3.082 23.688 3.125 C27.232 4.466 28.787 7.009 31 10 C32.064 13.192 32.167 15.585 32.188 18.938 C32.202 19.978 32.216 21.018 32.23 22.09 C32.004 24.95 31.477 26.577 30 29 C29.34 29 28.68 29 28 29 C27.742 29.614 27.484 30.227 27.219 30.859 C25.415 34.028 23.427 34.859 20.129 36.25 C13.258 37.897 6.015 37.272 -1 37 C-2.753 8.825 -2.753 8.825 0 0 Z M7 7 C5.8 9.401 5.885 10.894 5.902 13.57 C5.906 14.466 5.909 15.362 5.912 16.285 C5.92 17.222 5.929 18.159 5.938 19.125 C5.942 20.07 5.947 21.015 5.951 21.988 C5.963 24.326 5.979 26.663 6 29 C11.269 30.036 15.043 30.088 20 28 C22.835 25.732 23.832 24.19 24.34 20.59 C24.522 15.65 24.429 12.779 21 9 C16.573 6.396 11.972 6.805 7 7 Z " fill="#E4B362" transform="translate(746,607)"/>
<path d="M0 0 C2.64 0 5.28 0 8 0 C8.02 0.635 8.04 1.27 8.06 1.924 C8.156 4.825 8.265 7.725 8.375 10.625 C8.406 11.624 8.437 12.623 8.469 13.652 C8.671 18.731 8.86 23.297 11 28 C12.688 28.875 12.688 28.875 15 29 C16.155 29.124 17.31 29.247 18.5 29.375 C22 29 22 29 24.172 27.246 C26.984 22.253 26.677 17.327 26.75 11.688 C26.78 10.565 26.809 9.443 26.84 8.287 C26.91 5.525 26.963 2.763 27 0 C29.64 0 32.28 0 35 0 C37.241 23.865 37.241 23.865 32 32 C28.323 35.632 25.683 36.573 20.562 36.875 C19.471 36.955 18.379 37.035 17.254 37.117 C12.271 36.938 9.026 35.886 5.25 32.625 C-0.607 25.792 -0.142 18.231 -0.062 9.625 C-0.058 8.698 -0.053 7.771 -0.049 6.816 C-0.037 4.544 -0.021 2.272 0 0 Z " fill="#F7B043" transform="translate(677,592)"/>
<path d="M0 0 C-0.33 1.65 -0.66 3.3 -1 5 C-4.702 5.076 -8.089 4.985 -11.75 4.375 C-15 4 -15 4 -18 6 C-17.363 7.906 -17.363 7.906 -16 10 C-13.355 10.906 -13.355 10.906 -10.188 11.5 C-5.525 12.523 -2.358 13.41 1 17 C2.612 20.223 2.595 23.514 2 27 C-0.804 30.686 -3.496 32.899 -8 34 C-14.885 34.56 -21.724 34.138 -28 31 C-27.688 28.625 -27.688 28.625 -27 26 C-26.01 25.34 -25.02 24.68 -24 24 C-21.99 24.637 -19.993 25.312 -18 26 C-14.676 26.462 -11.346 26.749 -8 27 C-8 26.34 -8 25.68 -8 25 C-7.34 25 -6.68 25 -6 25 C-6 23.68 -6 22.36 -6 21 C-6.797 20.818 -7.593 20.636 -8.414 20.449 C-13.976 19.13 -19.047 17.889 -24 15 C-24 14.34 -24 13.68 -24 13 C-24.99 12.67 -25.98 12.34 -27 12 C-27.787 3.969 -27.787 3.969 -24.562 0 C-23.717 -0.66 -22.871 -1.32 -22 -2 C-21.67 -2.33 -21.34 -2.66 -21 -3 C-13.737 -4.545 -5.888 -5.036 0 0 Z " fill="#F2B04F" transform="translate(584,595)"/>
<path d="M0 0 C1.203 -0.001 2.405 -0.003 3.645 -0.004 C4.907 -0 6.169 0.004 7.469 0.008 C8.1 0.006 8.1 0.006 11.293 -0.004 C12.496 -0.003 13.698 -0.001 14.938 0 C16.045 0.001 17.153 0.002 18.295 0.003 C20.969 0.133 20.969 0.133 22.969 1.133 C22.969 3.113 22.969 5.093 22.969 7.133 C19.339 7.133 15.709 7.133 11.969 7.133 C11.639 17.033 11.309 26.933 10.969 37.133 C8.329 37.133 5.689 37.133 2.969 37.133 C2.639 27.563 2.309 17.993 1.969 8.133 C-1.331 7.803 -4.631 7.473 -8.031 7.133 C-8.031 5.153 -8.031 3.173 -8.031 1.133 C-5.286 -0.24 -3.069 0.003 0 0 Z " fill="#F5B045" transform="translate(625.03125,576.8671875)"/>
<path d="M0 0 C2.64 0 5.28 0 8 0 C8.02 0.635 8.04 1.27 8.06 1.924 C8.156 4.825 8.265 7.725 8.375 10.625 C8.406 11.624 8.437 12.623 8.469 13.652 C8.671 18.731 8.86 23.297 11 28 C12.688 28.875 12.688 28.875 15 29 C16.155 29.124 17.31 29.247 18.5 29.375 C22 29 22 29 24.172 27.246 C26.984 22.253 26.677 17.327 26.75 11.688 C26.78 10.565 26.809 9.443 26.84 8.287 C26.91 5.525 26.963 2.763 27 0 C29.64 0 32.28 0 35 0 C35.888 9.457 36.741 18.734 34 28 C33.34 28.66 32.68 29.32 32 30 C32.33 20.76 32.66 11.52 33 2 C32.34 2 31.68 2 31 2 C30.67 7.94 30.34 13.88 30 20 C29.34 20 28.68 20 28 20 C28.33 22.97 28.66 25.94 29 29 C28.34 28.67 27.68 28.34 27 28 C26.423 28.639 25.845 29.279 25.25 29.938 C20.44 32.99 15.594 32.822 10 33 C6.526 23.525 4.611 14.116 5 4 C4.01 4 3.02 4 2 4 C2 10.6 2 17.2 2 24 C2.66 24 3.32 24 4 24 C5.354 26.709 5.065 29.009 5 32 C1.12 28.605 0.674 24.957 0 20 C-0.208 16.472 -0.192 12.97 -0.125 9.438 C-0.116 8.524 -0.107 7.611 -0.098 6.67 C-0.074 4.446 -0.042 2.223 0 0 Z " fill="#EAB35F" transform="translate(677,592)"/>
<path d="M0 0 C1.98 0 3.96 0 6 0 C6 0.66 6 1.32 6 2 C10.62 2 15.24 2 20 2 C20.33 3.32 20.66 4.64 21 6 C16.38 6 11.76 6 7 6 C6.973 9.646 6.953 13.292 6.938 16.938 C6.929 17.978 6.921 19.019 6.912 20.092 C6.909 21.081 6.906 22.071 6.902 23.09 C6.897 24.006 6.892 24.923 6.886 25.867 C7 28 7 28 8 29 C10.35 29.235 12.706 29.414 15.062 29.562 C16.353 29.646 17.643 29.73 18.973 29.816 C19.472 29.847 19.472 29.847 22 30 C22 30.66 22 31.32 22 32 C20.02 32 18.04 32 16 32 C16 32.66 16 33.32 16 34 C10.72 34 5.44 34 0 34 C0 22.78 0 11.56 0 0 Z " fill="#F5B047" transform="translate(746,608)"/>
<path d="M0 0 C2.31 0 4.62 0 7 0 C7 12.21 7 24.42 7 37 C4.69 37 2.38 37 0 37 C-1.191 33.427 -1.13 30.547 -1.133 26.777 C-1.133 26.427 -1.133 26.427 -1.136 24.652 C-1.136 23.172 -1.135 21.692 -1.13 20.212 C-1.125 17.942 -1.13 15.673 -1.137 13.404 C-1.136 11.966 -1.135 10.528 -1.133 9.09 C-1.132 7.779 -1.131 6.468 -1.129 5.117 C-1 2 -1 2 0 0 Z " fill="#F6B047" transform="translate(814,598)"/>
<path d="M0 0 C0.66 0 1.32 0 2 0 C4.057 3.396 4.27 6.062 4.25 10 C4.253 10.516 4.253 10.516 4.266 13.125 C4.005 15.946 3.453 17.601 2 20 C1.34 20 0.68 20 0 20 C0.041 20.382 0.041 20.382 0.25 22.312 C0 25 0 25 -1.562 26.688 C-7.198 29.722 -11.768 30.447 -18 29 C-22.34 27.626 -24.417 26.857 -27 23.062 C-27.985 20.045 -28.213 18.868 -27 16 C-26.34 16 -25.68 16 -25 16 C-25 16.66 -25 17.32 -25 18 C-24.423 18.124 -23.845 18.247 -23.25 18.375 C-21 19 -21 19 -19.188 20.062 C-16.07 21.399 -13.351 21.186 -10 21 C-9.34 20.67 -8.68 20.34 -8 20 C-6 19.96 -4 19.957 -2 20 C-0.802 16.275 -0.935 12.763 -1 8.875 C-1.111 2.221 -1.111 2.221 0 0 Z " fill="#F7AE47" transform="translate(894,600)"/>
<path d="M0 0 C1.203 -0.001 2.405 -0.003 3.645 -0.004 C4.907 -0 6.169 0.004 7.469 0.008 C8.1 0.006 8.1 0.006 11.293 -0.004 C12.496 -0.003 13.698 -0.001 14.938 0 C16.045 0.001 17.153 0.002 18.295 0.003 C20.969 0.133 20.969 0.133 22.969 1.133 C22.969 3.113 22.969 5.093 22.969 7.133 C22.309 7.133 21.649 7.133 20.969 7.133 C20.969 5.813 20.969 4.493 20.969 3.133 C12.059 3.133 3.149 3.133 -6.031 3.133 C-6.031 3.793 -6.031 4.453 -6.031 5.133 C-3.061 5.133 -0.091 5.133 2.969 5.133 C2.969 5.793 2.969 6.453 2.969 7.133 C3.629 7.133 4.289 7.133 4.969 7.133 C5.991 10.451 6.013 13.316 5.848 16.773 C5.799 17.843 5.751 18.913 5.701 20.016 C5.645 21.127 5.589 22.238 5.531 23.383 C5.479 24.509 5.427 25.636 5.373 26.797 C5.244 29.576 5.109 32.354 4.969 35.133 C6.289 35.133 7.609 35.133 8.969 35.133 C9.299 25.893 9.629 16.653 9.969 7.133 C10.629 7.133 11.289 7.133 11.969 7.133 C11.639 17.033 11.309 26.933 10.969 37.133 C8.329 37.133 5.689 37.133 2.969 37.133 C2.639 27.563 2.309 17.993 1.969 8.133 C-1.331 7.803 -4.631 7.473 -8.031 7.133 C-8.031 5.153 -8.031 3.173 -8.031 1.133 C-5.286 -0.24 -3.069 0.003 0 0 Z " fill="#E6B35C" transform="translate(625.03125,576.8671875)"/>
<path d="M0 0 C4.975 4.052 7.233 8.429 8.645 14.68 C9.069 19.198 7.937 22.854 5.77 26.805 C3.582 29.305 3.582 29.305 1.77 30.805 C1.77 29.485 1.77 28.165 1.77 26.805 C2.43 26.805 3.09 26.805 3.77 26.805 C4.793 23.426 4.903 20.326 4.895 16.805 C4.897 15.773 4.9 14.742 4.902 13.68 C4.788 11.208 4.483 9.16 3.77 6.805 C3.11 6.805 2.45 6.805 1.77 6.805 C1.793 7.913 1.816 9.022 1.84 10.164 C1.859 11.628 1.877 13.091 1.895 14.555 C1.911 15.284 1.928 16.014 1.945 16.766 C1.98 20.609 1.945 23.551 -0.23 26.805 C-1.55 26.475 -2.87 26.145 -4.23 25.805 C-3.743 25.249 -3.256 24.694 -2.754 24.121 C-0.973 21.413 -0.826 19.95 -0.855 16.742 C-0.848 15.885 -0.84 15.028 -0.832 14.145 C-1.305 11.37 -2.178 10.634 -4.23 8.805 C-4.23 8.145 -4.23 7.485 -4.23 6.805 C-8.85 6.805 -13.47 6.805 -18.23 6.805 C-18.23 6.145 -18.23 5.485 -18.23 4.805 C-12.62 4.805 -7.01 4.805 -1.23 4.805 C-1.23 4.145 -1.23 3.485 -1.23 2.805 C-3.467 1.686 -4.879 1.611 -7.363 1.488 C-8.169 1.446 -8.975 1.404 -9.805 1.361 C-10.646 1.322 -11.488 1.283 -12.355 1.242 C-13.205 1.199 -14.054 1.156 -14.93 1.111 C-17.03 1.005 -19.13 0.904 -21.23 0.805 C-16.34 -4.085 -5.749 -3.081 0 0 Z " fill="#E6B564" transform="translate(892.23046875,593.1953125)"/>
<path d="M0 0 C0.33 0 0.66 0 1 0 C1 11.22 1 22.44 1 34 C6.28 34 11.56 34 17 34 C17 33.34 17 32.68 17 32 C18.98 32 20.96 32 23 32 C23 31.34 23 30.68 23 30 C18.38 30 13.76 30 9 30 C8.67 29.34 8.34 28.68 8 28 C8.736 27.986 9.472 27.972 10.23 27.957 C14.879 27.73 18.159 27.511 22.188 25.062 C24.741 20.748 24.608 16.904 24 12 C23.67 11.34 23.34 10.68 23 10 C24.32 10 25.64 10 27 10 C27.082 11.895 27.139 13.791 27.188 15.688 C27.205 16.215 27.205 16.215 27.293 18.887 C26.965 22.372 25.919 24.125 24 27 C24 27.66 24 28.32 24 29 C25.65 28.67 27.3 28.34 29 28 C27.214 32.25 25.292 33.494 21.129 35.25 C14.258 36.897 7.015 36.272 0 36 C-1.75 7.875 -1.75 7.875 0 0 Z " fill="#E9B66C" transform="translate(745,608)"/>
<path d="M0 0 C0.99 0 1.98 0 3 0 C3.48 3.187 3.959 6.375 4.438 9.562 C4.572 10.458 4.707 11.353 4.846 12.275 C5.582 17.181 6.306 22.088 7 27 C11.672 28.206 16.215 28.094 21 28 C20.67 28.66 20.34 29.32 20 30 C15.71 30 11.42 30 7 30 C7 29.34 7 28.68 7 28 C5.68 28 4.36 28 3 28 C2.67 25.36 2.34 22.72 2 20 C1.34 20 0.68 20 0 20 C0 13.4 0 6.8 0 0 Z " fill="#F8AF46" transform="translate(679,596)"/>
<path d="M0 0 C6.27 0 12.54 0 19 0 C19.33 1.32 19.66 2.64 20 4 C14.39 4 8.78 4 3 4 C3 4.66 3 5.32 3 6 C2.01 6 1.02 6 0 6 C0 6.66 0 7.32 0 8 C-0.66 8 -1.32 8 -2 8 C-2 8.66 -2 9.32 -2 10 C-2.66 10 -3.32 10 -4 10 C-3.979 10.949 -3.959 11.898 -3.938 12.875 C-4 16 -4 16 -5 18 C-5.99 18 -6.98 18 -8 18 C-7.67 14.7 -7.34 11.4 -7 8 C-5.68 8 -4.36 8 -3 8 C-2.876 7.423 -2.753 6.845 -2.625 6.25 C-2 4 -2 4 0 0 Z " fill="#F7AE48" transform="translate(871,594)"/>
<path d="M0 0 C1.875 1.75 1.875 1.75 3 4 C2.862 6.834 2.326 8.486 0.812 10.875 C-1 12 -1 12 -4.062 11.75 C-7 11 -7 11 -9 10 C-9.999 7.004 -10.086 5.315 -9.25 2.25 C-7.02 -1.764 -3.94 -1.28 0 0 Z " fill="#E5B265" transform="translate(505,606)"/>
<path d="M0 0 C2 2 2 2 2.375 5.438 C2 9 2 9 0.312 11 C-2.643 12.278 -3.99 12.081 -7 11 C-8.812 9.812 -8.812 9.812 -10 8 C-10.188 4.812 -10.188 4.812 -10 2 C-9.34 2 -8.68 2 -8 2 C-8 1.34 -8 0.68 -8 0 C-4.677 -1.108 -3.308 -0.933 0 0 Z " fill="#F0B150" transform="translate(958,606)"/>
<path d="M0 0 C2.31 0 4.62 0 7 0 C7 12.21 7 24.42 7 37 C4.69 37 2.38 37 0 37 C-1.191 33.427 -1.13 30.547 -1.133 26.777 C-1.133 26.427 -1.133 26.427 -1.136 24.652 C-1.136 23.172 -1.135 21.692 -1.13 20.212 C-1.125 17.942 -1.13 15.673 -1.137 13.404 C-1.136 11.966 -1.135 10.528 -1.133 9.09 C-1.132 7.779 -1.131 6.468 -1.129 5.117 C-1 2 -1 2 0 0 Z M1 4 C0.25 8.001 -0.12 11.767 -0.098 15.836 C-0.094 16.899 -0.091 17.963 -0.088 19.059 C-0.08 20.153 -0.071 21.247 -0.062 22.375 C-0.058 23.493 -0.053 24.61 -0.049 25.762 C-0.037 28.508 -0.021 31.254 0 34 C1.98 34 3.96 34 6 34 C6 24.1 6 14.2 6 4 C4.35 4 2.7 4 1 4 Z " fill="#E4B56A" transform="translate(814,598)"/>
<path d="M0 0 C1.65 0 3.3 0 5 0 C5 1.32 5 2.64 5 4 C5.66 4 6.32 4 7 4 C9.496 7.744 9.533 11.661 9 16 C7.812 19.438 7.812 19.438 6 22 C3.312 22.875 3.312 22.875 1 23 C0.67 22.01 0.34 21.02 0 20 C0.66 20 1.32 20 2 20 C2.66 14.72 3.32 9.44 4 4 C2.68 4 1.36 4 0 4 C0 2.68 0 1.36 0 0 Z " fill="#F7AF45" transform="translate(768,614)"/>
<path d="M0 0 C0.949 0.309 1.898 0.619 2.875 0.938 C7.509 2.279 12.206 2.633 17 3 C17 3.66 17 4.32 17 5 C13.04 5 9.08 5 5 5 C5 4.34 5 3.68 5 3 C3.35 3 1.7 3 0 3 C0 4.32 0 5.64 0 7 C5.94 7.33 11.88 7.66 18 8 C17.67 8.66 17.34 9.32 17 10 C10.003 10.258 3.408 10.204 -3 7 C-2.25 2.25 -2.25 2.25 0 0 Z " fill="#E5B366" transform="translate(559,619)"/>
<path d="M0 0 C0.561 0.48 1.121 0.959 1.699 1.453 C1.369 3.103 1.039 4.753 0.699 6.453 C-3.462 6.535 -7.248 6.436 -11.301 5.453 C-11.301 5.123 -11.301 4.793 -11.301 4.453 C-8.331 4.453 -5.361 4.453 -2.301 4.453 C-2.631 3.133 -2.961 1.813 -3.301 0.453 C-5.447 0.593 -7.593 0.741 -9.738 0.891 C-10.933 0.972 -12.128 1.053 -13.359 1.137 C-16.301 1.453 -16.301 1.453 -17.301 2.453 C-18.967 2.494 -20.635 2.496 -22.301 2.453 C-22.301 1.793 -22.301 1.133 -22.301 0.453 C-16.384 -3.491 -6.09 -4.095 0 0 Z " fill="#E6B364" transform="translate(582.30078125,593.546875)"/>
<path d="M0 0 C0.66 0 1.32 0 2 0 C2 0.66 2 1.32 2 2 C2.66 2 3.32 2 4 2 C4 3.32 4 4.64 4 6 C4.99 6 5.98 6 7 6 C7 6.66 7 7.32 7 8 C10.96 8 14.92 8 19 8 C19 7.34 19 6.68 19 6 C20.98 6 22.96 6 25 6 C25 6.66 25 7.32 25 8 C24.01 8 23.02 8 22 8 C22 8.66 22 9.32 22 10 C19.25 10.054 16.501 10.094 13.75 10.125 C12.973 10.142 12.195 10.159 11.395 10.176 C4.097 10.238 4.097 10.238 1 8 C-0.648 5.646 -1.101 4.606 -0.625 1.75 C-0.419 1.173 -0.212 0.595 0 0 Z " fill="#F8AF40" transform="translate(867,616)"/>
<path d="M0 0 C3.394 0.291 5.031 1.023 7.812 3.062 C10.812 7.09 10.566 9.07 10 14 C9.34 14.66 8.68 15.32 8 16 C7.67 12.04 7.34 8.08 7 4 C5.35 4 3.7 4 2 4 C2 5.32 2 6.64 2 8 C0.02 7.505 0.02 7.505 -10 5 C-10 4.67 -10 4.34 -10 4 C-6.7 4 -3.4 4 0 4 C0 2.68 0 1.36 0 0 Z " fill="#E8B563" transform="translate(576,608)"/>
<path d="M0 0 C0.66 0 1.32 0 2 0 C1.67 9.9 1.34 19.8 1 30 C-1.64 30 -4.28 30 -7 30 C-7 20.76 -7 11.52 -7 2 C-6.67 2 -6.34 2 -6 2 C-6 10.58 -6 19.16 -6 28 C-4.35 28 -2.7 28 -1 28 C-0.67 18.76 -0.34 9.52 0 0 Z " fill="#E4B471" transform="translate(635,584)"/>
<path d="M0 0 C1.65 0 3.3 0 5 0 C5 0.33 5 0.66 5 1 C10.28 1.33 15.56 1.66 21 2 C21 1.34 21 0.68 21 0 C22.65 0 24.3 0 26 0 C22.762 3.885 19.948 5.077 15 6 C9.74 5.718 5.654 4.327 1 2 C0.67 1.34 0.34 0.68 0 0 Z " fill="#E4B662" transform="translate(868,624)"/>
<path d="M0 0 C1.65 0 3.3 0 5 0 C5 0.66 5 1.32 5 2 C8.96 2 12.92 2 17 2 C17 1.34 17 0.68 17 0 C19.31 0 21.62 0 24 0 C24 0.66 24 1.32 24 2 C19.156 4.547 14.508 4.228 9.188 4.125 C8.304 4.116 7.42 4.107 6.51 4.098 C4.34 4.074 2.17 4.038 0 4 C0 2.68 0 1.36 0 0 Z " fill="#F9AE43" transform="translate(559,622)"/>
<path d="M0 0 C0.471 0.024 0.471 0.024 2.852 0.146 C3.836 0.203 4.821 0.259 5.836 0.316 C6.829 0.369 7.821 0.421 8.844 0.475 C11.3 0.604 13.755 0.739 16.211 0.879 C16.211 1.209 16.211 1.539 16.211 1.879 C13.571 2.044 13.571 2.044 0.211 2.879 C-0.119 4.529 -0.449 6.179 -0.789 7.879 C-1.119 7.219 -1.449 6.559 -1.789 5.879 C-3.789 6.879 -3.789 6.879 -5.789 9.879 C-6.119 6.909 -6.449 3.939 -6.789 0.879 C-4.288 -0.372 -2.786 -0.151 0 0 Z " fill="#F2B549" transform="translate(733.7890625,110.12109375)"/>
<path d="M0 0 C1.32 0 2.64 0 4 0 C4 0.66 4 1.32 4 2 C9.94 2 15.88 2 22 2 C22 1.34 22 0.68 22 0 C22.99 0.33 23.98 0.66 25 1 C23.142 3.436 22.134 3.973 19.074 4.582 C17.957 4.658 16.839 4.734 15.688 4.812 C14.578 4.901 13.468 4.99 12.324 5.082 C7.994 4.975 4.444 4.252 1.125 1.375 C0.754 0.921 0.383 0.467 0 0 Z " fill="#E4B469" transform="translate(682,624)"/>
<path d="M0 0 C0.984 2.242 0.984 2.242 1.75 4.875 C2.013 5.739 2.276 6.602 2.547 7.492 C3.013 10.073 2.844 11.547 2 14 C1.01 13.34 0.02 12.68 -1 12 C-1.188 8.375 -1.188 8.375 -1 5 C-2.65 4.67 -4.3 4.34 -6 4 C-6 3.01 -6 2.02 -6 1 C-6.99 0.34 -7.98 -0.32 -9 -1 C-3.375 -2.25 -3.375 -2.25 0 0 Z M-4 0 C-4.33 1.32 -4.66 2.64 -5 4 C-4.34 4 -3.68 4 -3 4 C-2.67 2.68 -2.34 1.36 -2 0 C-2.66 0 -3.32 0 -4 0 Z " fill="#F5B646" transform="translate(429,170)"/>
<path d="M0 0 C1 2 1 2 0.062 5.125 C-0.288 6.074 -0.639 7.023 -1 8 C0.938 7.688 0.938 7.688 3 7 C3.33 6.01 3.66 5.02 4 4 C4.66 4 5.32 4 6 4 C6 3.34 6 2.68 6 2 C7.32 2.33 8.64 2.66 10 3 C9.01 3.66 8.02 4.32 7 5 C7.66 6.65 8.32 8.3 9 10 C7.356 10.361 5.709 10.714 4.062 11.062 C3.604 11.161 3.604 11.161 1.285 11.66 C0.531 11.772 -0.223 11.884 -1 12 C-2.589 10.411 -2.17 8.752 -2.188 6.562 C-2.202 5.759 -2.216 4.956 -2.23 4.129 C-2 2 -2 2 0 0 Z " fill="#EBB35F" transform="translate(559,596)"/>
<path d="M0 0 C0.33 0.66 0.66 1.32 1 2 C-0.325 5.51 -1.726 8.554 -3.688 11.75 C-5 14 -5 14 -5 17 C-5.66 17 -6.32 17 -7 17 C-8.625 18.5 -8.625 18.5 -10 20 C-8.613 15.406 -6.74 11.393 -4.438 7.188 C-4.127 6.617 -4.127 6.617 -2.559 3.73 C-1 1 -1 1 0 0 Z " fill="#F6B647" transform="translate(234,262)"/>
<path d="M0 0 C3.63 0 7.26 0 11 0 C11 1.32 11 2.64 11 4 C7.37 4 3.74 4 0 4 C0 2.68 0 1.36 0 0 Z " fill="#F6AD4B" transform="translate(635,580)"/>
<path d="M0 0 C0.33 0 0.66 0 1 0 C1 1.98 1 3.96 1 6 C-0.65 6 -2.3 6 -4 6 C-4 6.66 -4 7.32 -4 8 C-5.65 8 -7.3 8 -9 8 C-8.812 6.188 -8.812 6.188 -8 4 C-5.562 2.188 -5.562 2.188 -3 1 C-2.34 1.33 -1.68 1.66 -1 2 C-0.67 1.34 -0.34 0.68 0 0 Z " fill="#F2B14F" transform="translate(708,618)"/>
<path d="M0 0 C0.846 0.495 1.691 0.99 2.562 1.5 C7.45 3.633 11.93 3.622 17 2 C17 2.66 17 3.32 17 4 C16.34 4 15.68 4 15 4 C15 4.66 15 5.32 15 6 C11.04 6 7.08 6 3 6 C3 5.34 3 4.68 3 4 C2.01 4 1.02 4 0 4 C0 2.68 0 1.36 0 0 Z " fill="#E8B460" transform="translate(871,618)"/>
<path d="M0 0 C1.32 0.66 2.64 1.32 4 2 C4 3.98 4 5.96 4 8 C1.69 8 -0.62 8 -3 8 C-3 6.68 -3 5.36 -3 4 C-2.34 4 -1.68 4 -1 4 C-0.67 2.68 -0.34 1.36 0 0 Z " fill="#F9AF40" transform="translate(500,606)"/>
<path d="M0 0 C0.33 0.66 0.66 1.32 1 2 C-1.64 2 -4.28 2 -7 2 C-7 4.64 -7 7.28 -7 10 C-7.99 9.34 -8.98 8.68 -10 8 C-10.188 4.875 -10.188 4.875 -10 2 C-9.34 2 -8.68 2 -8 2 C-8 1.34 -8 0.68 -8 0 C-4.697 -1.101 -3.284 -0.951 0 0 Z " fill="#E5B165" transform="translate(958,606)"/>
<path d="M0 0 C2.64 0.33 5.28 0.66 8 1 C8 1.33 8 1.66 8 2 C6.02 2 4.04 2 2 2 C2 8.93 2 15.86 2 23 C1.34 23.33 0.68 23.66 0 24 C0 16.08 0 8.16 0 0 Z " fill="#F5B05E" transform="translate(751,612)"/>
<path d="M0 0 C0.33 0.66 0.66 1.32 1 2 C2.65 1.67 4.3 1.34 6 1 C5.053 3.368 4.347 4.752 2.25 6.25 C-0.578 7.193 -3.04 7.135 -6 7 C-6 6.34 -6 5.68 -6 5 C-4.02 5 -2.04 5 0 5 C0 4.34 0 3.68 0 3 C-0.66 3 -1.32 3 -2 3 C-2 2.34 -2 1.68 -2 1 C-1.34 0.67 -0.68 0.34 0 0 Z " fill="#EAB359" transform="translate(768,635)"/>
<path d="M0 0 C0.796 2.915 1.253 5.746 1.562 8.75 C1.646 9.549 1.73 10.348 1.816 11.172 C1.877 11.775 1.938 12.378 2 13 C0.02 13.66 -1.96 14.32 -4 15 C-2.932 9.886 -1.769 4.928 0 0 Z " fill="#F6B747" transform="translate(877,145)"/>
</svg>
