<svg xmlns="http://www.w3.org/2000/svg" viewBox="0 0 1500 525" preserveAspectRatio="xMidYMid meet" aria-label="Slow Dust">
  <path fill="#f7b33c" fill-rule="evenodd" d="M823.00 524.00C805.64 522.09 786.08 512.98 777.46 502.78C769.14 492.95 767.68 484.95 761.96 418.00C761.42 411.68 760.73 405.40 760.42 404.06C759.85 401.53 757.31 376.05 756.33 362.97C755.61 353.34 755.58 353.36 771.05 351.95C793.51 349.89 799.54 349.74 800.67 351.18C801.57 352.34 806.19 395.16 810.64 443.50C812.37 462.37 814.00 468.85 818.02 472.86C826.79 481.64 843.16 483.23 856.40 476.60C868.45 470.57 871.04 464.71 869.07 447.97C868.46 442.76 866.86 427.02 865.53 413.00C864.19 398.98 862.11 377.92 860.90 366.20C859.48 352.48 859.04 344.56 859.66 343.94C861.40 342.20 901.70 338.51 903.41 339.93C904.89 341.16 906.11 350.57 909.51 387.00C910.93 402.12 912.99 422.82 914.11 433.00C918.53 473.42 918.09 480.00 910.15 492.17C895.32 514.89 859.44 527.99 823.00 524.00zM631.50 517.09C630.40 516.66 625.23 515.76 620.00 515.09C614.77 514.42 607.80 513.45 604.50 512.94C578.65 508.91 572.38 507.77 571.56 506.95C570.96 506.36 571.61 499.39 573.28 488.26C574.74 478.49 577.09 462.40 578.49 452.50C582.54 423.79 584.48 410.68 586.02 401.50C586.58 398.20 587.69 390.77 588.50 385.00C589.31 379.23 590.42 371.57 590.97 368.00C591.52 364.43 592.90 355.43 594.04 348.00C596.58 331.40 596.72 331.22 605.72 332.85C615.84 334.68 622.62 335.77 631.50 337.01C642.41 338.53 651.42 339.90 658.06 341.04C661.12 341.57 664.79 342.00 666.23 342.00C667.66 342.00 671.69 342.70 675.17 343.56C695.68 348.63 710.48 357.61 720.80 371.25C733.42 387.94 736.40 399.36 735.74 428.50C735.10 456.89 730.00 473.65 716.81 490.75C708.46 501.56 689.81 512.93 674.69 516.43C667.40 518.11 635.37 518.60 631.50 517.09zM988.50 490.04C965.86 488.21 959.40 478.06 965.11 453.28C967.44 443.15 968.24 442.33 974.02 444.04C993.24 449.73 1013.43 448.75 1029.19 441.35C1041.50 435.57 1048.55 426.19 1043.65 422.13C1040.89 419.83 1031.06 418.88 1013.00 419.16C965.80 419.89 954.78 417.32 941.14 402.43C932.81 393.33 931.50 389.53 931.50 374.50C931.50 359.46 932.13 357.12 939.01 346.58C957.95 317.57 996.61 299.89 1039.00 300.87C1055.96 301.26 1062.97 304.10 1067.16 312.31C1070.13 318.13 1069.40 334.61 1065.86 341.75C1063.12 347.26 1062.51 347.36 1051.50 344.12C1042.40 341.44 1031.26 341.38 1021.73 343.96C997.23 350.58 986.26 357.57 986.88 366.14C987.14 369.79 1004.90 373.94 1020.50 374.00C1068.59 374.18 1088.40 381.29 1099.08 402.22C1104.87 413.57 1102.47 431.08 1093.28 444.57C1071.58 476.39 1032.05 493.54 988.50 490.04zM658.37 469.40C674.30 465.54 682.85 456.32 687.00 438.50C693.09 412.38 681.26 391.59 657.75 387.10C654.59 386.49 649.55 385.52 646.55 384.94C637.18 383.12 637.06 383.28 634.50 402.00C633.63 408.32 632.49 415.98 631.95 419.00C631.42 422.02 629.87 432.75 628.51 442.82C627.14 452.90 625.75 461.59 625.42 462.13C624.41 463.76 625.86 467.73 627.74 468.50C630.61 469.67 647.29 471.75 650.00 471.27C651.38 471.02 655.14 470.18 658.37 469.40zM280.50 409.26C269.50 404.40 268.01 401.48 268.12 385.00C268.24 367.09 266.78 368.52 285.05 368.37C307.87 368.17 322.65 363.20 334.86 351.59C343.12 343.75 344.80 337.60 339.37 335.12C336.33 333.74 326.49 333.66 320.76 334.98C275.52 345.42 256.95 345.36 239.54 334.74C207.70 315.34 216.03 268.76 256.50 239.85C286.48 218.43 328.26 208.57 342.62 219.52C349.21 224.55 351.76 234.63 349.83 247.99C348.44 257.56 347.83 258.32 342.06 257.61C325.51 255.59 323.93 255.67 313.50 259.02C281.51 269.31 263.29 289.52 283.30 292.52C287.83 293.20 308.67 291.71 319.50 289.93C330.17 288.17 357.52 287.63 364.33 289.04C378.15 291.89 389.24 299.90 394.76 311.00C398.95 319.42 398.71 335.02 394.20 346.79C383.80 373.93 355.48 397.35 320.50 407.74C309.39 411.03 286.49 411.91 280.50 409.26zM1191.21 381.56C1183.12 369.22 1173.35 354.16 1169.50 348.09C1165.65 342.02 1160.92 334.83 1159.00 332.10C1157.08 329.38 1151.03 320.09 1145.57 311.47C1140.10 302.85 1135.01 295.56 1134.25 295.27C1132.61 294.64 1130.82 295.54 1121.27 301.78C1088.00 323.52 1088.60 323.31 1083.41 315.28C1081.71 312.65 1077.04 305.45 1073.04 299.28C1067.56 290.82 1065.91 287.50 1066.36 285.78C1066.77 284.22 1071.56 280.52 1081.64 274.00C1089.71 268.77 1103.34 259.83 1111.91 254.12C1120.48 248.41 1129.53 242.62 1132.00 241.25C1134.47 239.87 1137.40 237.98 1138.50 237.04C1139.60 236.09 1142.30 234.26 1144.50 232.96C1146.70 231.66 1155.62 225.85 1164.31 220.05C1173.01 214.25 1181.33 208.80 1182.81 207.95C1184.29 207.09 1187.04 205.43 1188.92 204.25C1194.32 200.88 1193.88 200.42 1210.40 226.47C1218.86 239.81 1220.74 237.14 1188.01 258.43C1181.14 262.90 1175.38 267.25 1175.22 268.10C1175.06 268.95 1179.10 275.99 1184.21 283.75C1192.93 297.00 1202.24 311.24 1204.50 314.79C1205.05 315.65 1210.02 323.36 1215.55 331.93C1221.08 340.49 1226.48 348.92 1227.55 350.65C1228.62 352.38 1232.47 358.24 1236.10 363.67C1247.15 380.24 1247.12 379.50 1237.01 386.00C1233.16 388.48 1225.40 393.53 1219.76 397.22C1214.12 400.92 1208.69 403.96 1207.71 403.97C1206.46 403.99 1201.43 397.16 1191.21 381.56zM436.08 348.15C435.04 346.21 429.92 330.76 426.09 318.00C424.85 313.88 419.85 298.12 414.97 283.00C395.33 222.08 390.02 205.23 384.71 186.90C383.12 181.43 384.01 180.56 395.17 176.72C427.11 165.71 427.57 165.71 431.16 176.50C434.72 187.20 446.79 225.21 451.96 242.00C454.25 249.43 458.12 261.49 460.56 268.82C463.00 276.14 465.00 282.60 465.00 283.17C465.00 285.70 468.37 291.00 469.99 291.00C471.93 291.00 480.23 288.53 511.48 278.64C532.56 271.97 537.96 270.94 539.69 273.25C540.55 274.40 550.19 304.66 551.30 309.70C552.07 313.18 550.07 314.77 541.50 317.49C537.10 318.88 525.85 322.49 516.50 325.49C507.15 328.50 492.07 333.25 483.00 336.05C473.93 338.84 463.56 342.23 459.98 343.57C456.39 344.90 452.69 346.00 451.76 346.00C450.83 346.00 447.79 346.90 445.00 348.00C438.73 350.47 437.34 350.50 436.08 348.15zM623.50 301.00C622.40 300.53 620.08 300.11 618.36 300.07C611.81 299.92 601.35 295.73 590.10 288.75C536.98 255.78 528.39 189.81 571.39 145.16C602.45 112.91 647.42 111.06 682.77 140.56C696.43 151.97 706.72 167.27 712.65 185.00C716.55 196.64 716.84 222.61 713.21 235.29C704.07 267.24 675.34 295.59 647.00 300.63C638.61 302.12 626.55 302.31 623.50 301.00zM850.00 296.80C833.45 295.52 832.05 295.22 830.95 292.70C830.01 290.57 828.82 284.17 823.47 252.50C820.54 235.22 820.18 233.77 818.86 234.21C817.65 234.62 813.74 243.77 809.98 255.00C808.42 259.68 805.96 266.65 804.52 270.50C803.08 274.35 801.02 280.26 799.95 283.63C797.13 292.48 797.30 292.41 780.74 291.59C760.15 290.57 762.62 293.35 756.62 264.50C755.82 260.65 754.64 254.57 754.00 251.00C752.88 244.77 752.22 241.47 746.66 214.50C745.30 207.90 743.46 198.68 742.57 194.00C739.50 177.82 736.83 164.46 734.99 156.00C733.97 151.32 732.40 143.22 731.49 138.00C730.59 132.78 729.21 125.92 728.42 122.77C726.38 114.52 726.56 110.31 729.02 108.99C730.13 108.39 731.56 108.23 732.20 108.62C733.54 109.45 746.70 110.83 762.70 111.81C768.86 112.19 774.32 112.95 774.84 113.50C775.73 114.45 777.97 124.93 781.49 144.50C782.38 149.45 783.55 155.46 784.09 157.86C784.64 160.26 785.75 166.11 786.57 170.86C789.20 186.12 789.78 186.40 793.51 174.25C794.98 169.44 796.99 163.47 797.98 161.00C798.96 158.53 800.96 152.45 802.41 147.50C803.85 142.55 806.72 133.55 808.77 127.50C812.50 116.50 812.50 116.50 821.50 116.59C826.45 116.64 833.65 117.09 837.49 117.59C845.73 118.66 844.56 115.87 851.02 150.00C853.25 161.82 855.49 173.53 856.00 176.00C856.50 178.47 857.18 182.77 857.52 185.55C858.88 196.75 860.56 195.57 865.49 180.00C873.38 155.05 884.23 122.46 884.88 121.76C885.56 121.05 912.62 122.44 924.50 123.81C930.09 124.45 930.49 124.67 930.38 127.00C930.24 129.89 921.29 156.09 914.59 173.23C912.06 179.68 910.00 185.67 910.00 186.54C910.00 187.42 909.53 189.02 908.95 190.10C907.78 192.29 902.82 205.54 900.01 214.00C897.16 222.60 889.50 243.82 886.66 251.00C885.25 254.57 882.79 261.55 881.19 266.50C876.74 280.32 871.25 294.99 869.94 296.57C868.65 298.13 867.43 298.14 850.00 296.80zM644.50 254.62C656.15 249.28 665.86 234.45 668.15 218.50C671.47 195.38 654.85 170.00 633.46 165.53C620.07 162.73 605.46 171.26 598.39 186.01C587.96 207.75 591.98 231.00 608.73 245.83C612.25 248.95 615.67 251.67 616.32 251.88C616.97 252.09 618.17 252.84 619.00 253.55C624.15 257.99 636.06 258.48 644.50 254.62z"/>
</svg>
