<svg xmlns="http://www.w3.org/2000/svg" viewBox="0 0 3000 1049" preserveAspectRatio="xMidYMid meet" aria-label="Slow Dust">
  <path fill="#f7b33d" fill-rule="evenodd" d="M1634.00 1047.56C1632.62 1046.82 1626.33 1044.53 1620.00 1042.47C1566.08 1024.98 1540.42 998.11 1536.00 954.50C1534.42 938.98 1533.28 929.20 1531.54 916.32C1530.71 910.17 1529.57 898.69 1529.00 890.82C1528.44 882.94 1527.55 873.58 1527.02 870.00C1526.50 866.42 1525.14 852.48 1524.00 839.00C1522.86 825.52 1521.05 807.52 1519.98 799.00C1518.91 790.48 1517.55 776.75 1516.96 768.50C1516.37 760.25 1515.24 747.88 1514.45 741.00C1510.74 708.67 1511.34 707.81 1539.58 704.95C1549.99 703.90 1565.25 702.33 1573.50 701.45C1602.44 698.39 1603.13 699.18 1606.51 739.50C1607.34 749.40 1609.11 767.40 1610.45 779.50C1611.79 791.60 1613.83 811.40 1614.98 823.50C1616.14 835.60 1617.50 849.33 1618.02 854.00C1618.54 858.67 1619.88 872.85 1621.01 885.50C1625.01 930.48 1626.59 936.77 1636.41 946.58C1665.83 975.99 1735.30 959.34 1739.60 921.86C1740.20 916.65 1739.44 906.62 1735.49 867.50C1734.71 859.80 1733.37 846.08 1732.52 837.00C1731.66 827.92 1730.28 813.75 1729.45 805.50C1728.62 797.25 1727.52 785.77 1727.00 780.00C1726.47 774.23 1724.95 759.60 1723.60 747.50C1716.32 681.89 1713.88 687.13 1753.50 683.13C1804.66 677.95 1804.86 677.96 1808.57 685.13C1810.22 688.33 1813.36 715.00 1819.07 774.50C1820.18 786.05 1821.53 800.00 1822.07 805.50C1822.61 811.00 1823.71 823.83 1824.50 834.00C1825.30 844.17 1826.65 858.35 1827.50 865.50C1828.36 872.65 1829.92 885.70 1830.98 894.50C1833.09 912.05 1834.51 934.13 1834.14 943.50C1832.44 986.74 1787.87 1027.56 1724.95 1043.51C1719.30 1044.95 1713.42 1046.77 1711.89 1047.56C1707.91 1049.61 1637.78 1049.62 1634.00 1047.56zM1281.00 1036.32C1279.08 1036.12 1271.65 1034.86 1264.50 1033.52C1257.35 1032.18 1245.88 1030.39 1239.00 1029.53C1232.12 1028.68 1222.45 1027.33 1217.50 1026.53C1212.55 1025.73 1201.53 1024.14 1193.00 1023.00C1160.74 1018.67 1149.44 1016.25 1146.53 1013.04C1142.35 1008.42 1142.44 1006.75 1148.95 965.50C1149.99 958.90 1151.14 951.02 1151.49 948.00C1152.98 935.25 1157.16 905.91 1158.53 898.60C1159.35 894.26 1160.67 885.26 1161.46 878.60C1162.26 871.95 1163.61 861.77 1164.45 856.00C1165.30 850.23 1167.14 837.62 1168.55 828.00C1169.96 818.38 1171.97 805.55 1173.03 799.50C1174.09 793.45 1176.10 779.95 1177.50 769.50C1178.91 759.05 1180.93 745.33 1182.00 739.00C1183.07 732.67 1184.23 724.80 1184.57 721.50C1184.92 718.20 1186.51 707.17 1188.11 697.00C1193.33 663.80 1193.34 663.80 1223.00 668.53C1231.53 669.89 1246.38 672.12 1256.00 673.49C1265.62 674.86 1275.75 676.44 1278.50 677.00C1281.25 677.56 1296.35 679.79 1312.06 681.95C1364.11 689.12 1379.63 694.15 1408.69 713.22C1467.88 752.07 1488.96 835.07 1462.10 923.50C1438.31 1001.80 1368.33 1045.39 1281.00 1036.32zM1975.25 979.93C1935.69 974.79 1921.75 956.66 1928.40 919.03C1933.98 887.46 1934.81 886.72 1959.20 891.50C2015.13 902.45 2074.59 888.20 2087.93 860.64C2098.18 839.47 2082.15 835.72 1993.00 838.38C1930.01 840.27 1892.53 825.29 1871.72 789.92C1827.77 715.20 1917.60 617.86 2044.29 602.93C2119.61 594.04 2147.94 615.28 2134.93 670.89C2130.24 690.95 2125.69 694.23 2109.60 689.09C2079.91 679.62 2055.47 681.24 2015.89 695.33C1984.19 706.61 1968.87 721.17 1975.40 733.81C1980.42 743.52 2013.31 748.91 2068.00 748.99C2128.40 749.07 2171.67 764.59 2191.32 793.21C2248.15 876.03 2107.96 997.19 1975.25 979.93zM1318.03 939.67C1337.52 933.88 1346.39 928.42 1357.18 915.61C1378.36 890.44 1383.81 842.60 1368.93 812.36C1357.16 788.44 1339.99 777.11 1307.15 771.58C1275.01 766.17 1273.98 766.81 1269.96 794.50C1268.84 802.20 1265.71 823.58 1263.02 842.00C1260.32 860.42 1257.62 879.55 1257.02 884.50C1256.42 889.45 1254.77 900.44 1253.36 908.93C1250.34 927.02 1250.59 931.35 1254.86 935.16C1263.10 942.53 1299.66 945.13 1318.03 939.67zM571.50 820.38C543.36 815.32 535.20 802.40 536.22 764.50C536.98 736.34 536.06 737.08 570.09 737.19C597.82 737.28 601.59 736.80 622.28 730.59C662.82 718.41 693.20 689.69 682.62 673.54C677.63 665.92 661.79 665.44 629.50 671.92C574.99 682.86 544.58 686.89 529.64 685.16C451.83 676.11 419.76 615.41 455.58 545.00C485.18 486.85 564.10 438.56 642.66 430.55C685.01 426.23 708.62 454.91 698.61 498.50C694.90 514.66 692.45 516.29 675.97 513.54C657.01 510.38 638.77 512.45 618.31 520.09C570.66 537.89 542.33 563.13 552.53 578.69C558.14 587.24 586.17 587.47 647.00 579.46C657.73 578.05 670.33 576.41 675.00 575.82C744.93 566.98 798.66 604.02 795.63 659.00C790.90 745.11 663.40 836.91 571.50 820.38zM2410.73 803.00C2408.34 801.12 2387.01 769.75 2373.00 747.50C2369.54 742.00 2363.45 732.55 2359.48 726.50C2355.50 720.45 2346.72 706.95 2339.97 696.50C2333.22 686.05 2323.12 670.52 2317.52 662.00C2295.06 627.82 2288.12 617.12 2282.93 608.70C2268.15 584.72 2269.60 584.69 2231.18 609.84C2175.53 646.27 2176.07 646.19 2161.36 620.63C2158.78 616.16 2152.20 605.80 2146.73 597.61C2127.77 569.23 2126.30 571.93 2178.50 538.99C2184.00 535.52 2203.12 522.97 2221.00 511.11C2238.88 499.25 2258.30 486.61 2264.18 483.02C2277.03 475.17 2310.97 453.13 2362.00 419.49C2387.98 402.36 2387.32 402.17 2406.53 431.95C2430.61 469.26 2431.71 471.59 2428.46 478.45C2426.30 482.99 2406.73 496.68 2364.14 523.44C2346.01 534.83 2346.01 534.80 2372.60 575.26C2381.90 589.40 2394.39 608.52 2400.36 617.74C2406.33 626.96 2418.85 646.20 2428.17 660.50C2437.50 674.80 2448.26 691.67 2452.09 698.00C2455.92 704.33 2464.25 717.15 2470.61 726.50C2493.36 759.98 2493.56 758.98 2459.87 780.02C2452.52 784.61 2442.00 791.37 2436.50 795.05C2420.35 805.85 2416.03 807.17 2410.73 803.00zM873.53 693.73C870.15 690.35 867.40 682.62 851.92 633.00C845.93 613.80 833.82 575.82 820.35 534.00C815.12 517.77 808.35 496.62 805.31 487.00C802.26 477.38 796.70 460.05 792.95 448.50C789.20 436.95 783.41 418.27 780.08 407.00C776.76 395.73 773.13 383.92 772.02 380.77C765.79 363.12 769.84 359.67 811.00 347.55C817.88 345.52 828.05 342.32 833.60 340.43C856.45 332.67 855.24 331.04 876.03 397.50C880.51 411.80 886.11 429.57 888.49 437.00C890.86 444.43 896.95 463.77 902.01 480.00C907.08 496.23 915.21 521.88 920.07 537.00C924.94 552.12 929.23 565.85 929.60 567.50C933.09 582.87 938.66 584.49 962.62 577.10C985.79 569.95 1015.15 560.66 1034.00 554.50C1077.21 540.39 1077.45 540.44 1085.39 564.82C1101.44 614.07 1103.17 622.88 1097.75 627.54C1095.29 629.65 1041.25 648.11 1012.50 656.65C991.37 662.93 967.95 670.29 951.00 675.97C943.02 678.65 929.30 683.08 920.50 685.82C878.92 698.79 878.63 698.83 873.53 693.73zM1243.50 600.92C1177.55 589.43 1121.33 541.21 1097.62 475.79C1065.78 387.92 1118.90 280.11 1209.91 247.90C1290.72 219.31 1387.39 270.92 1421.10 360.65C1453.97 448.15 1411.97 547.49 1323.94 590.43C1299.80 602.21 1271.84 605.86 1243.50 600.92zM1698.50 592.90C1660.98 589.21 1661.68 589.74 1657.42 562.20C1656.51 556.32 1654.66 545.88 1653.31 539.00C1651.95 532.12 1649.10 516.00 1646.97 503.17C1639.84 460.25 1635.93 461.56 1618.06 512.86C1591.57 588.92 1595.36 583.00 1573.17 583.00C1556.34 583.00 1534.27 580.71 1530.04 578.52C1523.71 575.25 1521.28 568.03 1514.54 532.50C1512.55 522.05 1509.84 508.32 1508.51 502.00C1507.17 495.68 1504.95 484.43 1503.58 477.00C1502.20 469.57 1499.25 454.73 1497.00 444.00C1491.00 415.29 1486.64 393.07 1481.96 367.34C1480.35 358.45 1478.15 347.43 1477.08 342.84C1474.16 330.26 1461.30 265.56 1460.03 257.00C1459.41 252.88 1458.03 246.05 1456.95 241.83C1451.36 219.89 1453.61 218.26 1486.00 220.78C1494.53 221.44 1510.37 222.63 1521.21 223.43C1542.99 225.02 1546.63 226.04 1549.98 231.47C1551.94 234.64 1557.34 260.31 1565.01 303.00C1566.74 312.62 1568.98 323.88 1569.99 328.00C1571.00 332.12 1572.36 338.88 1573.01 343.00C1574.21 350.57 1576.91 358.21 1578.80 359.37C1583.24 362.12 1587.34 352.42 1604.10 299.50C1607.41 289.05 1612.61 272.62 1615.66 263.00C1625.37 232.32 1626.77 231.09 1649.80 233.00C1691.62 236.47 1688.86 234.39 1694.94 267.05C1697.14 278.85 1700.95 298.40 1703.40 310.50C1705.86 322.60 1709.67 342.56 1711.88 354.86C1718.22 390.21 1721.53 390.64 1732.30 357.50C1768.15 247.12 1769.04 244.83 1776.58 243.42C1782.00 242.40 1847.72 247.18 1852.31 248.93C1855.65 250.20 1859.00 254.72 1859.00 257.96C1859.00 261.93 1833.01 337.03 1826.98 350.50C1825.75 353.25 1823.04 360.68 1820.96 367.00C1818.88 373.32 1814.41 386.15 1811.02 395.50C1805.31 411.29 1801.37 422.38 1788.16 460.00C1785.36 467.98 1780.52 481.02 1777.42 489.00C1774.31 496.98 1768.04 514.52 1763.49 528.00C1751.96 562.09 1743.49 584.86 1741.22 587.91C1735.88 595.08 1728.98 595.89 1698.50 592.90zM1278.76 513.85C1323.99 505.29 1351.48 433.41 1328.62 383.50C1298.12 316.89 1226.67 310.98 1195.75 372.50C1169.22 425.30 1195.34 495.01 1248.00 511.92C1259.70 515.68 1266.75 516.12 1278.76 513.85z"/>
</svg>
