<svg xmlns="http://www.w3.org/2000/svg" viewBox="0 0 1500 747" preserveAspectRatio="xMidYMid meet" aria-label="Slow Dust Studio">
  <path fill="#efb154" fill-rule="evenodd" d="M744.79 625.51L744.50 606.79L755.00 607.18C764.38 607.53 765.96 607.87 769.79 610.32C775.87 614.22 777.99 618.17 778.00 625.60C778.00 633.09 775.49 637.35 768.96 640.97C765.29 643.00 762.77 643.51 754.79 643.83L745.09 644.23L744.79 625.51zM813.83 633.75C813.62 633.06 813.61 624.74 813.81 615.25L814.17 598.00L817.58 598.00L821.00 598.00L821.00 616.50L821.00 635.00L817.61 635.00C815.74 635.00 814.04 634.44 813.83 633.75zM560.62 627.53C555.19 625.59 554.76 624.84 557.28 621.68C559.47 618.93 559.55 618.91 563.22 620.45C567.95 622.42 575.36 622.48 576.96 620.55C578.87 618.24 577.75 615.64 574.49 614.80C572.85 614.38 569.52 613.54 567.09 612.94C560.81 611.37 557.00 607.26 557.00 602.03C557.00 592.35 568.50 588.68 582.32 593.93C585.03 594.96 585.04 595.02 583.46 598.07C582.30 600.31 581.40 600.98 580.18 600.50C576.78 599.15 569.24 598.37 567.15 599.14C564.55 600.10 564.30 603.58 566.75 604.80C567.71 605.28 571.55 606.48 575.27 607.45C583.15 609.52 586.00 612.30 586.00 617.91C586.00 622.52 583.84 625.62 579.31 627.51C574.90 629.36 565.77 629.37 560.62 627.53zM688.50 628.32C684.96 627.34 681.29 624.13 679.58 620.52C678.44 618.12 677.72 613.06 677.32 604.50L676.72 592.00L680.76 592.00L684.79 592.00L685.15 604.47C685.47 615.87 685.70 617.14 687.78 619.22C689.54 620.99 691.18 621.50 695.08 621.50C702.94 621.50 703.95 619.55 703.98 604.25L704.00 592.00L708.08 592.00L712.15 592.00L711.83 605.43C711.47 619.98 710.86 621.78 704.70 626.37C702.00 628.39 692.78 629.50 688.50 628.32zM872.50 627.58C868.18 625.46 865.42 622.82 862.95 618.41C859.18 611.69 861.53 601.10 868.00 595.66C874.13 590.49 882.08 589.74 889.82 593.60C902.46 599.90 904.01 616.38 892.81 625.32C889.71 627.78 888.00 628.32 882.31 628.65C877.64 628.92 874.56 628.58 872.50 627.58zM497.36 615.45C495.39 613.48 494.96 612.30 495.47 610.26C496.81 604.93 502.15 603.41 505.83 607.31C508.63 610.30 508.58 613.10 505.69 615.83C502.66 618.67 500.48 618.57 497.36 615.45zM952.00 617.26C947.79 615.62 946.76 609.81 950.15 606.87C952.66 604.70 953.96 604.57 957.45 606.16C961.10 607.82 961.30 613.29 957.83 616.25C955.71 618.06 954.57 618.26 952.00 617.26zM628.00 599.00L628.00 584.00L622.50 584.00L617.00 584.00L617.00 580.66L617.00 577.33L632.50 577.19L648.00 577.05L648.00 580.48L648.00 583.90L642.25 584.20L636.50 584.50L636.22 599.25L635.95 614.00L631.97 614.00L628.00 614.00L628.00 599.00zM821.46 522.55C796.40 518.66 776.92 505.67 771.11 489.00C769.87 485.43 766.13 454.36 764.01 430.00C763.36 422.57 761.53 404.35 759.94 389.50C756.75 359.71 756.38 355.28 757.05 354.63C757.30 354.39 766.87 353.40 778.33 352.42C794.30 351.06 799.34 350.93 799.90 351.84C800.54 352.87 802.17 367.87 806.06 408.50C808.73 436.46 812.19 466.36 812.98 468.46C814.55 472.57 820.68 477.74 826.69 480.01C831.73 481.92 833.67 482.12 841.34 481.56C854.21 480.62 863.13 476.52 867.81 469.37C871.86 463.19 871.84 462.29 866.45 410.50C863.34 380.59 861.24 359.13 860.61 350.87L860.10 344.25L868.30 343.56C872.81 343.18 882.12 342.22 888.99 341.44C895.87 340.65 901.97 340.00 902.56 340.00C903.19 340.00 904.11 344.96 904.81 352.25C905.47 358.99 907.10 374.62 908.43 387.00C909.77 399.38 911.14 413.32 911.47 418.00C911.81 422.68 913.01 434.82 914.14 445.00C916.83 469.04 916.43 477.65 912.24 486.15C903.38 504.13 879.99 518.36 852.50 522.49C840.74 524.25 832.51 524.27 821.46 522.55zM619.00 514.09C608.83 512.52 595.33 510.46 589.00 509.53C582.67 508.60 576.60 507.68 575.50 507.49C574.40 507.30 573.17 507.12 572.77 507.07C572.37 507.03 572.30 504.86 572.62 502.25C573.71 493.38 579.05 457.51 579.50 456.00C579.75 455.18 580.42 450.23 580.99 445.00C581.57 439.77 583.13 428.75 584.47 420.50C585.81 412.25 587.14 403.70 587.41 401.50C587.68 399.30 588.38 393.68 588.95 389.00C589.52 384.32 590.20 379.60 590.45 378.50C591.76 372.71 596.00 343.28 596.00 339.91C596.00 337.76 596.45 336.00 597.00 336.00C597.55 336.00 597.89 335.44 597.75 334.75C597.46 333.32 597.65 333.33 612.00 335.46C617.77 336.31 630.15 338.11 639.50 339.47C679.41 345.24 680.45 345.46 692.35 350.86C723.74 365.09 739.39 396.34 735.09 436.18C732.87 456.68 726.36 475.55 717.38 487.50C707.34 500.85 689.64 511.92 672.50 515.57C670.85 515.92 662.30 516.38 653.50 516.58C639.65 516.90 635.01 516.57 619.00 514.09zM985.47 488.54C976.67 486.94 971.08 484.13 967.10 479.30C963.42 474.84 963.13 470.77 965.60 457.86C966.48 453.26 967.41 448.39 967.66 447.02C967.91 445.66 968.24 444.42 968.40 444.27C968.55 444.12 972.23 444.98 976.58 446.17C982.94 447.92 987.37 448.37 999.00 448.43C1012.34 448.49 1014.19 448.27 1022.15 445.66C1036.90 440.83 1047.00 432.56 1047.00 425.33C1047.00 422.66 1046.40 421.72 1043.75 420.28C1040.87 418.70 1036.47 418.44 1005.00 417.96C970.20 417.42 969.37 417.36 962.98 414.92C940.58 406.33 928.37 387.97 931.79 368.03C936.04 343.25 960.32 320.10 994.00 308.71C1013.80 302.01 1040.77 299.50 1052.33 303.28C1063.56 306.94 1068.32 313.13 1068.21 323.88C1068.14 329.99 1065.68 339.99 1063.02 344.97C1062.03 346.82 1061.73 346.87 1059.70 345.54C1054.75 342.29 1044.98 340.72 1033.50 341.31C1014.55 342.29 992.27 350.97 987.06 359.41C980.22 370.47 988.18 373.63 1026.40 375.04C1058.66 376.24 1066.84 377.71 1080.29 384.74C1092.74 391.25 1099.93 401.76 1100.78 414.71C1101.73 429.10 1096.07 441.50 1081.56 456.85C1059.74 479.92 1016.51 494.18 985.47 488.54zM281.92 408.52C279.41 407.71 275.73 405.47 273.75 403.55C270.77 400.65 270.03 399.09 269.46 394.49C268.78 389.10 269.26 369.40 270.09 368.58C270.32 368.36 272.98 368.64 276.00 369.20C288.56 371.54 310.13 368.20 322.54 361.99C340.36 353.07 350.12 338.62 341.46 333.98C337.72 331.98 321.95 333.36 301.00 337.52C265.51 344.58 249.24 342.39 234.11 328.53C225.17 320.33 221.47 311.41 221.66 298.50C221.91 281.76 228.70 268.28 245.11 252.02C261.07 236.18 277.41 226.92 301.82 219.87C315.90 215.80 330.96 215.29 338.00 218.64C343.37 221.19 345.38 223.26 347.56 228.49C349.50 233.14 349.69 244.57 347.95 252.35L346.75 257.68L341.13 256.36C328.73 253.44 314.47 255.69 299.24 262.97C286.52 269.05 279.03 274.75 274.86 281.50C270.80 288.07 273.58 292.43 282.52 293.55C288.61 294.31 310.04 292.80 326.63 290.44C332.20 289.65 341.51 289.00 347.32 289.00C370.88 289.00 385.40 296.25 393.62 312.12C396.14 316.99 396.40 318.45 396.35 327.50C396.28 339.28 394.58 344.85 387.28 357.22C379.17 370.97 364.98 384.61 348.43 394.58C342.22 398.32 327.62 404.25 317.76 407.04C308.02 409.79 288.36 410.60 281.92 408.52zM1201.37 394.25C1198.24 389.44 1191.81 379.67 1187.09 372.54C1182.36 365.41 1178.27 359.11 1178.00 358.54C1177.72 357.97 1173.95 352.10 1169.62 345.50C1158.90 329.15 1152.77 319.76 1143.02 304.75C1138.47 297.74 1134.36 292.00 1133.90 292.00C1133.44 292.00 1129.11 294.62 1124.28 297.83C1097.08 315.91 1088.00 321.53 1088.00 320.30C1088.00 319.82 1083.27 312.24 1077.50 303.46C1071.72 294.68 1067.10 286.88 1067.25 286.13C1067.47 284.93 1088.92 270.12 1093.00 268.35C1093.83 268.00 1095.40 266.94 1096.50 266.01C1097.60 265.08 1107.28 258.76 1118.00 251.96C1128.72 245.17 1137.72 239.34 1138.00 239.02C1138.28 238.70 1143.67 235.13 1150.00 231.07C1156.33 227.02 1168.36 219.22 1176.74 213.74C1185.12 208.26 1192.54 203.99 1193.24 204.26C1194.55 204.77 1216.52 237.88 1215.87 238.37C1215.18 238.90 1192.54 253.70 1183.65 259.43C1178.79 262.57 1174.18 265.38 1173.40 265.67C1171.41 266.44 1171.62 267.39 1174.90 272.22C1178.05 276.88 1195.91 304.26 1203.12 315.50C1212.55 330.18 1221.89 344.60 1232.75 361.19C1238.94 370.65 1244.00 378.66 1244.00 379.00C1244.00 379.64 1208.59 403.00 1207.62 403.00C1207.32 403.00 1204.50 399.06 1201.37 394.25zM437.18 347.62C436.71 347.00 430.81 328.95 424.06 307.50C417.31 286.05 410.06 263.10 407.94 256.50C405.82 249.90 400.89 234.38 396.98 222.00C393.06 209.62 388.55 195.48 386.94 190.57C385.34 185.66 384.13 181.56 384.26 181.47C384.39 181.37 389.00 179.91 394.50 178.22C400.00 176.54 408.85 173.80 414.17 172.14C419.49 170.48 424.62 168.98 425.56 168.81C426.94 168.56 428.02 170.88 431.16 180.92C435.48 194.77 443.30 219.34 452.01 246.50C455.19 256.40 459.67 270.57 461.96 278.00C464.26 285.43 466.32 292.05 466.53 292.73C466.75 293.41 467.50 293.78 468.21 293.55C468.92 293.32 476.25 291.05 484.50 288.50C492.75 285.96 504.23 282.35 510.00 280.49C522.24 276.55 537.34 272.00 538.19 272.00C538.52 272.00 539.08 273.24 539.44 274.75C540.57 279.47 545.10 294.13 548.11 302.83C549.70 307.41 551.00 311.55 551.00 312.02C551.00 312.84 539.10 316.81 489.50 332.56C442.76 347.40 438.05 348.76 437.18 347.62zM623.98 300.07C607.36 297.80 588.99 288.56 575.14 275.50C543.58 245.72 536.36 203.64 556.59 167.23C568.41 145.95 588.31 129.57 609.78 123.44C618.03 121.09 620.38 120.84 630.78 121.20C640.82 121.55 643.84 122.07 651.86 124.88C666.39 129.98 676.95 136.70 688.04 147.92C701.87 161.91 710.31 177.53 713.69 195.36C715.56 205.21 714.99 223.49 712.53 232.50C706.28 255.43 690.43 276.86 670.18 289.76C657.65 297.74 638.40 302.03 623.98 300.07zM852.50 295.87C833.82 294.76 832.11 294.42 831.60 291.71C830.18 284.29 825.50 257.24 823.43 244.50C822.09 236.25 820.61 228.61 820.15 227.52C819.11 225.06 819.82 223.27 800.39 277.88L795.62 291.26L786.56 290.61C781.58 290.26 774.27 289.69 770.32 289.35L763.14 288.74L762.06 284.12C760.87 278.99 741.55 182.54 740.60 177.00C740.27 175.07 737.14 159.43 733.64 142.23C730.14 125.02 727.64 110.72 728.10 110.44C729.28 109.71 770.05 112.98 772.65 114.01C774.21 114.63 774.98 116.06 775.46 119.18C775.82 121.56 777.67 131.60 779.57 141.50C781.48 151.40 784.18 165.57 785.58 173.00C786.98 180.43 788.48 187.39 788.91 188.48C789.48 189.93 792.45 181.95 799.93 158.98C805.56 141.67 810.99 125.25 811.99 122.50L813.81 117.50L826.66 117.75C833.72 117.89 840.43 118.22 841.58 118.48C843.43 118.90 844.10 121.27 847.86 140.73C854.22 173.69 859.00 199.02 859.00 199.75C859.00 202.86 862.50 193.14 872.97 161.00C879.69 140.38 885.48 123.20 885.84 122.84C886.75 121.92 930.00 125.22 930.00 126.20C930.00 126.64 927.33 134.31 924.07 143.25C918.63 158.12 912.36 175.59 898.85 213.50C896.11 221.20 892.03 232.45 889.80 238.50C887.56 244.55 884.25 253.78 882.44 259.00C879.31 268.05 872.04 288.38 869.84 294.25C869.27 295.76 868.29 296.93 867.65 296.85C867.02 296.78 860.20 296.33 852.50 295.87z"/>
</svg>
